<svg version="1.1" xmlns="http://www.w3.org/2000/svg" viewBox="0 0 965.4511630644911 769.7830425696777" width="2896.3534891934733" height="2309.3491277090334">
  <!-- svg-source:excalidraw -->
  
  <defs>
    <style class="style-fonts">
      @font-face {
        font-family: "Virgil";
        src: url("https://excalidraw.com/Virgil.woff2");
      }
      @font-face {
        font-family: "Cascadia";
        src: url("https://excalidraw.com/Cascadia.woff2");
      }
    </style>
    
  </defs>
  <g stroke-linecap="round" transform="translate(36.92901923031923 71.16955082298239) rotate(0 190.42663598581794 78.86355631735896)"><path d="M7.86 8.16 C7.86 8.16, 7.86 8.16, 7.86 8.16 M7.86 8.16 C7.86 8.16, 7.86 8.16, 7.86 8.16 M3.66 19.09 C5.86 14.02, 10.3 9.05, 18.1 2.48 M3.66 19.09 C9.17 13.75, 15.05 6.36, 18.1 2.48 M2.75 26.24 C10.48 19.08, 17.29 9.14, 24.4 1.33 M2.75 26.24 C7.77 20.31, 13.71 13.51, 24.4 1.33 M2.48 32.64 C10.04 26.09, 18.38 15.68, 30.7 0.18 M2.48 32.64 C9.84 25.49, 14.52 17.8, 30.7 0.18 M2.88 38.28 C11.4 29.74, 16.96 22.11, 34.37 2.05 M2.88 38.28 C14.22 24.59, 26.56 10.5, 34.37 2.05 M2.62 44.68 C13.54 32.89, 21.01 22.6, 39.36 2.41 M2.62 44.68 C11.83 35.37, 19.88 25.03, 39.36 2.41 M2.36 51.07 C17.57 32.17, 33.76 13.09, 45 2.02 M2.36 51.07 C14.54 37.43, 26.79 23.53, 45 2.02 M2.75 56.72 C11.13 46.64, 20.37 36.12, 49.99 2.38 M2.75 56.72 C14.85 42.83, 26.93 28.42, 49.99 2.38 M2.49 63.11 C11.49 49.69, 25.59 38.25, 55.63 1.98 M2.49 63.11 C13.56 49.71, 26.43 34.72, 55.63 1.98 M2.88 68.76 C17.71 50.61, 34.78 31.92, 60.62 2.34 M2.88 68.76 C19.27 51.57, 33.58 34.12, 60.62 2.34 M2.62 75.16 C15.7 59.34, 30.79 41.17, 66.26 1.95 M2.62 75.16 C18.13 58.54, 31.31 43.08, 66.26 1.95 M2.36 81.55 C24.35 57.9, 40.93 36.13, 71.25 2.31 M2.36 81.55 C19.02 63.24, 36.01 42.98, 71.25 2.31 M2.76 87.2 C23.85 64.71, 40.23 42.12, 76.89 1.91 M2.76 87.2 C28.08 58.56, 53.56 29.38, 76.89 1.91 M2.49 93.59 C25.04 66.63, 52.63 35.72, 81.88 2.27 M2.49 93.59 C31.85 58.67, 62.67 24.38, 81.88 2.27 M2.89 99.24 C32.25 65.53, 58.4 33.62, 87.52 1.88 M2.89 99.24 C36.7 61.16, 69.07 23.64, 87.52 1.88 M2.63 105.64 C21.89 82.77, 41.17 62.5, 92.51 2.24 M2.63 105.64 C35.56 67, 70.72 28.85, 92.51 2.24 M2.37 112.03 C31.77 78.35, 58 45.71, 98.15 1.85 M2.37 112.03 C23.87 86.21, 43.85 61.49, 98.15 1.85 M2.76 117.68 C36.15 80.69, 68.47 42.77, 103.14 2.21 M2.76 117.68 C33.8 83.52, 62.8 47.52, 103.14 2.21 M2.5 124.07 C36.46 82.93, 67.8 46.52, 108.78 1.81 M2.5 124.07 C23.9 97.46, 48.23 70.91, 108.78 1.81 M2.89 129.72 C49.59 80.78, 92.06 29.95, 113.77 2.17 M2.89 129.72 C41.73 86.03, 80.2 42.86, 113.77 2.17 M3.29 135.36 C50.58 83.42, 96.03 29.11, 119.41 1.78 M3.29 135.36 C29.32 106.37, 54.19 77.43, 119.41 1.78 M4.34 140.25 C32 107.15, 56.77 78.07, 124.4 2.14 M4.34 140.25 C36.14 104.35, 66.78 68.77, 124.4 2.14 M4.73 145.89 C38.67 103.53, 74.71 63.61, 130.04 1.74 M4.73 145.89 C53.1 89.16, 101.68 34.38, 130.04 1.74 M7.75 148.52 C36.57 115.21, 64.98 83.98, 135.03 2.1 M7.75 148.52 C45.79 104.53, 86.89 58.66, 135.03 2.1 M10.77 151.14 C54.61 101.11, 100.44 51.89, 140.67 1.71 M10.77 151.14 C57.57 98.95, 103.46 45.09, 140.67 1.71 M13.79 153.76 C42.64 121.01, 72.76 86.22, 145.66 2.07 M13.79 153.76 C61.25 100.49, 105.19 48.49, 145.66 2.07 M17.47 155.63 C53.96 114.3, 89.53 70.32, 150.65 2.43 M17.47 155.63 C50.98 116.9, 85.1 76.06, 150.65 2.43 M20.48 158.26 C64.51 108.53, 106.6 56.82, 156.29 2.03 M20.48 158.26 C61.06 109.83, 102.87 63.12, 156.29 2.03 M25.47 158.62 C57.95 124.89, 86.5 87.48, 161.28 2.39 M25.47 158.62 C69.89 109.53, 113.78 58.09, 161.28 2.39 M29.8 159.73 C63.27 120.12, 98.95 80.19, 166.92 2 M29.8 159.73 C73.91 108.49, 117.16 57.78, 166.92 2 M34.79 160.09 C70.82 116.89, 107.3 74.89, 171.91 2.36 M34.79 160.09 C73.18 115.97, 111.25 72.16, 171.91 2.36 M39.78 160.45 C88.53 103.95, 134.23 53.43, 177.55 1.96 M39.78 160.45 C70.41 123.32, 102.7 87.08, 177.55 1.96 M45.42 160.06 C87.82 113.86, 130.08 65.63, 182.54 2.32 M45.42 160.06 C87.4 110, 129.81 61.97, 182.54 2.32 M50.41 160.42 C104.12 99.07, 155.14 38.28, 188.18 1.93 M50.41 160.42 C84.29 123.65, 117.47 85.69, 188.18 1.93 M56.05 160.02 C105.88 102.8, 153.89 44.91, 193.17 2.29 M56.05 160.02 C103.53 105.94, 151.04 50.35, 193.17 2.29 M61.04 160.38 C112.54 98.22, 165.6 37.94, 198.81 1.9 M61.04 160.38 C97.95 117.18, 134.38 73.83, 198.81 1.9 M66.68 159.99 C112.4 110.23, 156.56 59.7, 203.8 2.26 M66.68 159.99 C116.11 101.76, 166.77 45.13, 203.8 2.26 M71.67 160.35 C98.12 126.91, 128.87 95.67, 209.44 1.86 M71.67 160.35 C99.68 125.93, 130.53 91.48, 209.44 1.86 M77.31 159.96 C130.1 100.41, 183.6 41.36, 214.43 2.22 M77.31 159.96 C113.41 118.67, 150.64 76.34, 214.43 2.22 M82.3 160.32 C126.91 111.08, 167.55 61.9, 220.07 1.83 M82.3 160.32 C121.2 115.39, 159.14 69.17, 220.07 1.83 M87.94 159.92 C138.2 101.63, 187.5 42.33, 225.06 2.19 M87.94 159.92 C117.03 128.59, 145.97 95.78, 225.06 2.19 M92.93 160.28 C122.68 124.85, 154.19 86.79, 230.7 1.79 M92.93 160.28 C127.32 120.86, 160.54 81.16, 230.7 1.79 M98.57 159.89 C134.19 120.83, 168.8 78.88, 235.69 2.15 M98.57 159.89 C139.82 114.77, 178.89 69.08, 235.69 2.15 M103.56 160.25 C143.79 113.49, 183.44 66.71, 241.33 1.76 M103.56 160.25 C158.39 97.84, 214.4 35.48, 241.33 1.76 M109.2 159.85 C142.43 122.36, 177.07 83.62, 246.32 2.12 M109.2 159.85 C143.92 121.24, 177.15 83.07, 246.32 2.12 M114.19 160.21 C155.14 110.62, 196.7 63.88, 251.96 1.72 M114.19 160.21 C141.56 127.04, 168.43 95.64, 251.96 1.72 M119.83 159.82 C157.04 118.48, 195.88 74.72, 256.95 2.08 M119.83 159.82 C169.26 103.45, 218.39 47.37, 256.95 2.08 M124.82 160.18 C158.05 119.6, 190.84 84.02, 262.59 1.69 M124.82 160.18 C155.46 125.37, 187.7 90.44, 262.59 1.69 M130.46 159.78 C173.06 112.64, 211.6 66.16, 267.58 2.05 M130.46 159.78 C177.94 104.96, 225.48 49.93, 267.58 2.05 M135.45 160.14 C190.1 98.57, 242.07 38.62, 272.56 2.41 M135.45 160.14 C164.03 125.38, 194.84 91.19, 272.56 2.41 M140.43 160.5 C170.87 127.69, 201.88 90.21, 278.21 2.01 M140.43 160.5 C179.12 114.58, 216.82 70.2, 278.21 2.01 M146.08 160.11 C198.17 98.94, 248.99 39.12, 283.19 2.37 M146.08 160.11 C180.21 123.87, 214.08 85.35, 283.19 2.37 M151.06 160.47 C203.69 99.64, 255.87 41.21, 288.84 1.98 M151.06 160.47 C189.61 117.91, 226.73 75.29, 288.84 1.98 M156.71 160.07 C206.56 104.15, 254.3 45.39, 293.82 2.34 M156.71 160.07 C200.59 108.2, 246.04 56.64, 293.82 2.34 M161.69 160.43 C192.07 123.41, 222.7 87.12, 299.47 1.94 M161.69 160.43 C211.99 104.3, 260.52 48.46, 299.47 1.94 M167.34 160.04 C199.26 119.64, 235.15 79.54, 304.45 2.3 M167.34 160.04 C196.84 125.57, 225.66 93.96, 304.45 2.3 M172.32 160.4 C208.93 119.25, 246.85 74.47, 310.1 1.91 M172.32 160.4 C204.21 122.59, 237.76 86.31, 310.1 1.91 M177.97 160 C211.45 117.46, 248.95 77.77, 315.08 2.27 M177.97 160 C208.02 125.87, 236.06 92.35, 315.08 2.27 M182.95 160.36 C227 106.73, 274.49 54.03, 320.73 1.88 M182.95 160.36 C230.66 105.11, 277.41 51.77, 320.73 1.88 M188.6 159.97 C235.76 106.2, 285.21 49.68, 325.71 2.24 M188.6 159.97 C237.26 104.01, 285.27 47.94, 325.71 2.24 M193.58 160.33 C230.36 114.72, 268.55 72.69, 331.36 1.84 M193.58 160.33 C240.85 106.21, 287.54 52.08, 331.36 1.84 M199.23 159.94 C228 124.78, 257.51 95, 336.34 2.2 M199.23 159.94 C234.41 120.14, 268.19 81.61, 336.34 2.2 M204.21 160.3 C246.98 112.95, 289.65 64.59, 341.99 1.81 M204.21 160.3 C242.22 117.39, 279.11 74.31, 341.99 1.81 M209.86 159.9 C250.45 118.82, 287.64 73.92, 348.94 -0.1 M209.86 159.9 C264.73 96.35, 317.79 34.96, 348.94 -0.1 M214.84 160.26 C247.83 121.11, 281.28 81.54, 353.27 1.02 M214.84 160.26 C266.84 100.93, 319.06 41.63, 353.27 1.02 M220.49 159.87 C258.31 114.13, 297.91 69.64, 358.26 1.38 M220.49 159.87 C259.94 116.87, 297.22 72.72, 358.26 1.38 M225.47 160.23 C261.28 119.49, 293.93 79.53, 363.25 1.74 M225.47 160.23 C260.65 119.87, 296.21 78.48, 363.25 1.74 M231.12 159.83 C275.89 107.27, 324.39 55.08, 366.27 4.36 M231.12 159.83 C270.39 112.31, 310 67.22, 366.27 4.36 M236.1 160.19 C281.52 110.72, 324.99 59.34, 369.94 6.23 M236.1 160.19 C285.02 103.45, 335.67 44.24, 369.94 6.23 M241.75 159.8 C274.78 120, 307.98 80.68, 373.62 8.1 M241.75 159.8 C272.56 124.3, 301.13 91.99, 373.62 8.1 M246.73 160.16 C296.93 100.24, 348.37 43.76, 375.98 11.48 M246.73 160.16 C286.18 115.96, 323.91 72.52, 375.98 11.48 M252.38 159.76 C278.4 130.55, 304.33 100.62, 378.34 14.86 M252.38 159.76 C292.97 113.03, 333.79 64.54, 378.34 14.86 M257.36 160.12 C281.42 130.8, 307.12 104.39, 380.05 18.99 M257.36 160.12 C290.22 122.67, 324.15 84.53, 380.05 18.99 M262.35 160.48 C291.06 126.83, 323.68 89.77, 380.44 24.64 M262.35 160.48 C294.63 124.49, 327.12 88.5, 380.44 24.64 M268 160.09 C297.48 127.72, 325.88 92.23, 380.18 31.03 M268 160.09 C297.5 125.7, 324.55 94.53, 380.18 31.03 M272.98 160.45 C302.04 128.98, 330.7 92.93, 380.58 36.68 M272.98 160.45 C296.31 132.64, 319.39 106.66, 380.58 36.68 M278.63 160.05 C309.77 124.24, 336.7 91.49, 380.31 43.07 M278.63 160.05 C304.61 130.01, 331.44 98.77, 380.31 43.07 M283.61 160.41 C318.37 125.07, 351.21 86.41, 380.71 48.72 M283.61 160.41 C314.46 127.61, 342.69 92.6, 380.71 48.72 M289.26 160.02 C319.06 123.05, 353.1 88.41, 380.45 55.12 M289.26 160.02 C312.91 132.25, 336.44 105.78, 380.45 55.12 M294.24 160.38 C329.05 121.14, 361.17 80.02, 380.84 60.76 M294.24 160.38 C326.78 124.89, 358.19 88.49, 380.84 60.76 M299.89 159.99 C324.82 131.66, 348.34 103.42, 380.58 67.16 M299.89 159.99 C317.7 139.95, 337.86 117.37, 380.58 67.16 M304.87 160.35 C322.83 138.26, 340.1 119.62, 380.98 72.8 M304.87 160.35 C323.53 139.99, 343.24 117.95, 380.98 72.8 M310.52 159.95 C324.71 143.63, 340.8 125.95, 380.71 79.2 M310.52 159.95 C332.72 134.14, 354.04 107.79, 380.71 79.2 M315.5 160.31 C331.15 142.58, 345.88 125.43, 380.45 85.59 M315.5 160.31 C333.16 139.98, 350.14 119.55, 380.45 85.59 M321.15 159.92 C341.54 135.3, 359.91 112.41, 380.85 91.24 M321.15 159.92 C340.81 138.12, 358.68 117.39, 380.85 91.24 M326.13 160.28 C341.25 144.35, 353.28 127.27, 380.59 97.64 M326.13 160.28 C345.55 138.72, 364.48 118.11, 380.59 97.64 M331.78 159.88 C345.31 145.18, 355.69 134.52, 380.98 103.28 M331.78 159.88 C348.29 141.16, 364.43 123.1, 380.98 103.28 M336.76 160.24 C350.66 141.41, 365.93 125.98, 380.72 109.68 M336.76 160.24 C349.73 146.65, 360.92 133.34, 380.72 109.68 M342.41 159.85 C353.74 142.71, 368.33 129.01, 381.11 115.32 M342.41 159.85 C355.77 144.25, 368.41 129.06, 381.11 115.32 M349.36 157.94 C356.92 150, 363.73 142.43, 380.85 121.72 M349.36 157.94 C358.26 148.78, 366 138.11, 380.85 121.72 M355 157.55 C361.15 153.14, 365.18 144.28, 381.9 126.61 M355 157.55 C362.36 150.1, 369.19 142.33, 381.9 126.61 M361.3 156.4 C369.49 146.81, 377.41 138.51, 380.98 133.76 M361.3 156.4 C365.71 151.86, 369.63 147.66, 380.98 133.76 M368.91 153.74 C371.81 152.3, 373.68 148.48, 380.07 140.91 M368.91 153.74 C370.94 149.89, 374.43 147.63, 380.07 140.91" stroke="#ffc9c9" stroke-width="0.5" fill="none"></path><path d="M32 0 M32 0 C111.15 -0.03, 191.15 -0.12, 348.85 0 M32 0 C157.97 -1.43, 284.44 -1.13, 348.85 0 M348.85 0 C370.78 -0.11, 380.08 11.01, 380.85 32 M348.85 0 C368.5 -1.7, 379.62 11.75, 380.85 32 M380.85 32 C382.08 55.37, 381.8 79.56, 380.85 125.73 M380.85 32 C380.61 58.95, 381.95 85.86, 380.85 125.73 M380.85 125.73 C382.5 145.29, 370.24 158.66, 348.85 157.73 M380.85 125.73 C381.7 147.75, 369.11 157.44, 348.85 157.73 M348.85 157.73 C283.33 155.7, 221.03 155.77, 32 157.73 M348.85 157.73 C243.74 155.47, 138.03 156.06, 32 157.73 M32 157.73 C9.78 158.37, -0.92 148.42, 0 125.73 M32 157.73 C9.92 159.49, 1.61 146.51, 0 125.73 M0 125.73 C-1.59 88.22, -1.73 49.96, 0 32 M0 125.73 C0.54 98.07, -0.31 70.85, 0 32 M0 32 C0.77 11.38, 12.5 -1.28, 32 0 M0 32 C-1.54 12.82, 10.75 -2.11, 32 0" stroke="#1e1e1e" stroke-width="1" fill="none"></path></g><g transform="translate(194.25565674201607 137.53310714034134) rotate(0 33.099998474121094 12.5)"><text x="33.099998474121094" y="0" font-family="Virgil, Segoe UI Emoji" font-size="20px" fill="#1e1e1e" text-anchor="middle" style="white-space: pre;" direction="ltr" dominant-baseline="text-before-edge">Header</text></g><g stroke-linecap="round" transform="translate(491.25783653056124 65.78153983422942) rotate(0 190.42663598581817 78.86355631735896)"><path d="M7.86 8.16 C7.86 8.16, 7.86 8.16, 7.86 8.16 M7.86 8.16 C7.86 8.16, 7.86 8.16, 7.86 8.16 M3.66 19.09 C6.75 13.08, 10.15 10.93, 18.1 2.48 M3.66 19.09 C8.07 15.65, 11.09 11.21, 18.1 2.48 M2.75 26.24 C11.01 17.96, 19.02 7.53, 24.4 1.33 M2.75 26.24 C8.58 18.31, 16.6 10.29, 24.4 1.33 M2.48 32.64 C11.72 22.8, 17.01 15.88, 30.7 0.18 M2.48 32.64 C9.15 25.36, 16.62 15.33, 30.7 0.18 M2.88 38.28 C10.26 25.98, 23.1 16.7, 34.37 2.05 M2.88 38.28 C10.26 28.67, 18.16 19.77, 34.37 2.05 M2.62 44.68 C14.64 29.24, 29.88 12.51, 39.36 2.41 M2.62 44.68 C12.38 32.49, 23.6 19.54, 39.36 2.41 M2.36 51.07 C9.71 40.14, 21.97 31.48, 45 2.02 M2.36 51.07 C15.84 36.33, 28.75 20.44, 45 2.02 M2.75 56.72 C15.19 42.44, 27.4 30.44, 49.99 2.38 M2.75 56.72 C13.17 45.47, 22.43 33.2, 49.99 2.38 M2.49 63.11 C23.94 40.32, 44.18 17.18, 55.63 1.98 M2.49 63.11 C22.4 40.12, 42.27 16.07, 55.63 1.98 M2.88 68.76 C16.23 55.51, 25.48 41.66, 60.62 2.34 M2.88 68.76 C16.24 52.17, 31.63 36.59, 60.62 2.34 M2.62 75.16 C14.66 58.82, 29.21 45.98, 66.26 1.95 M2.62 75.16 C17.32 58.35, 31.49 41.02, 66.26 1.95 M2.36 81.55 C23.89 53.51, 48.9 28.47, 71.25 2.31 M2.36 81.55 C30.02 48.58, 57.16 18.69, 71.25 2.31 M2.76 87.2 C33.38 53.81, 61.96 21.69, 76.89 1.91 M2.76 87.2 C22.01 64.46, 41.19 41.55, 76.89 1.91 M2.49 93.59 C24.94 70.25, 42.84 47.13, 81.88 2.27 M2.49 93.59 C23.78 68.12, 46.01 42.99, 81.88 2.27 M2.89 99.24 C21.76 76.31, 40.11 55.93, 87.52 1.88 M2.89 99.24 C29.59 69.49, 55.98 39.53, 87.52 1.88 M2.63 105.64 C24.51 81.14, 45.64 54.4, 92.51 2.24 M2.63 105.64 C29.29 76.53, 53.76 46.4, 92.51 2.24 M2.37 112.03 C28.66 81.17, 57.78 48.99, 98.15 1.85 M2.37 112.03 C26.58 84.69, 49.12 58.79, 98.15 1.85 M2.76 117.68 C33.95 83.59, 63.13 46.2, 103.14 2.21 M2.76 117.68 C42.36 73.28, 83.14 26.73, 103.14 2.21 M2.5 124.07 C34.59 84.87, 70.88 50.16, 108.78 1.81 M2.5 124.07 C25.42 98.58, 47.6 72.89, 108.78 1.81 M2.89 129.72 C30.79 95.7, 57.67 63.49, 113.77 2.17 M2.89 129.72 C27.22 101.63, 51.69 73.4, 113.77 2.17 M3.29 135.36 C44.18 89.11, 83.14 42.81, 119.41 1.78 M3.29 135.36 C43.08 89.62, 84.18 43.29, 119.41 1.78 M4.34 140.25 C37.96 99.91, 71.02 60.73, 124.4 2.14 M4.34 140.25 C39.53 100.06, 75.31 57.39, 124.4 2.14 M4.73 145.89 C54.18 86.98, 102.72 29.53, 130.04 1.74 M4.73 145.89 C40.44 103.23, 76.45 62.24, 130.04 1.74 M7.75 148.52 C52.94 96.51, 101.15 46.77, 135.03 2.1 M7.75 148.52 C36.66 113.86, 66.42 81.21, 135.03 2.1 M10.77 151.14 C58.41 95.43, 111.21 38.83, 140.67 1.71 M10.77 151.14 C43.6 111.69, 77.76 74.57, 140.67 1.71 M13.79 153.76 C43.25 121.72, 72.9 87.12, 145.66 2.07 M13.79 153.76 C58.4 102.14, 102.22 51.72, 145.66 2.07 M17.47 155.63 C66.3 96.31, 116.36 41.5, 150.65 2.43 M17.47 155.63 C68.08 98.88, 117.83 40.85, 150.65 2.43 M20.48 158.26 C51.08 120.58, 85.04 83.91, 156.29 2.03 M20.48 158.26 C48.99 126.4, 77.59 93.44, 156.29 2.03 M25.47 158.62 C74.81 104.86, 119.25 51.7, 161.28 2.39 M25.47 158.62 C72.97 103.47, 120.06 48.34, 161.28 2.39 M29.8 159.73 C71.23 109.97, 113.78 60.94, 166.92 2 M29.8 159.73 C77.33 104.93, 127.48 47.53, 166.92 2 M34.79 160.09 C67.6 122, 100.37 82.49, 171.91 2.36 M34.79 160.09 C85.54 98.8, 137.99 37.56, 171.91 2.36 M39.78 160.45 C88.73 105.65, 137.84 49.88, 177.55 1.96 M39.78 160.45 C87.93 105.94, 136.13 50.84, 177.55 1.96 M45.42 160.06 C86.53 113.8, 128.15 66.07, 182.54 2.32 M45.42 160.06 C82.09 118.25, 119.23 76.06, 182.54 2.32 M50.41 160.42 C82.77 123.9, 114.02 89.86, 188.18 1.93 M50.41 160.42 C88.19 116.16, 126.65 73.51, 188.18 1.93 M56.05 160.02 C103.31 107.12, 148.5 56.43, 193.17 2.29 M56.05 160.02 C94.22 112.64, 135.84 67.68, 193.17 2.29 M61.04 160.38 C93.84 122.17, 124.83 84.24, 198.81 1.9 M61.04 160.38 C100.75 114.1, 139.75 68.87, 198.81 1.9 M66.68 159.99 C99.34 121.16, 132.34 86.45, 203.8 2.26 M66.68 159.99 C113.06 106.17, 159.05 53.13, 203.8 2.26 M71.67 160.35 C101.43 129.03, 128.06 95.04, 209.44 1.86 M71.67 160.35 C108.48 117.4, 145.5 76.22, 209.44 1.86 M77.31 159.96 C116.29 112.36, 157.14 68.55, 214.43 2.22 M77.31 159.96 C126.55 104.24, 176.21 47.35, 214.43 2.22 M82.3 160.32 C136.76 97.3, 190.22 35.48, 220.07 1.83 M82.3 160.32 C131.27 104.74, 178.59 49.15, 220.07 1.83 M87.94 159.92 C121.66 119.15, 159.7 77.83, 225.06 2.19 M87.94 159.92 C133.37 105.42, 180.33 53.02, 225.06 2.19 M92.93 160.28 C146.31 97, 202.06 33.84, 230.7 1.79 M92.93 160.28 C119.83 128.09, 148.09 96.35, 230.7 1.79 M98.57 159.89 C140.4 114.78, 180.59 66.49, 235.69 2.15 M98.57 159.89 C140.94 109.37, 183.59 59.81, 235.69 2.15 M103.56 160.25 C136.66 124, 167.86 88.84, 241.33 1.76 M103.56 160.25 C150.88 105.83, 197.59 52.84, 241.33 1.76 M109.2 159.85 C140.84 125.37, 168.22 88.71, 246.32 2.12 M109.2 159.85 C155.78 104.73, 202.84 49.81, 246.32 2.12 M114.19 160.21 C151.26 119.62, 186.12 80.45, 251.96 1.72 M114.19 160.21 C143.65 126.45, 174.11 91.84, 251.96 1.72 M119.83 159.82 C155.09 121.36, 188.17 81.76, 256.95 2.08 M119.83 159.82 C168.98 101.92, 218.97 44.36, 256.95 2.08 M124.82 160.18 C160.16 116.53, 197.58 76.06, 262.59 1.69 M124.82 160.18 C169.21 108.56, 216.1 53.7, 262.59 1.69 M130.46 159.78 C168.54 114.12, 209.58 69.44, 267.58 2.05 M130.46 159.78 C174.54 110.53, 216.02 62.08, 267.58 2.05 M135.45 160.14 C188.26 99.42, 240.83 38.21, 272.56 2.41 M135.45 160.14 C182.18 108.08, 226.7 54.52, 272.56 2.41 M140.43 160.5 C194.14 96.03, 248.3 37.15, 278.21 2.01 M140.43 160.5 C194.59 98.18, 249.61 35.48, 278.21 2.01 M146.08 160.11 C196.39 101.97, 248.49 41.92, 283.19 2.37 M146.08 160.11 C185.23 115.08, 225.36 70.59, 283.19 2.37 M151.06 160.47 C197.04 107.64, 243.14 54.39, 288.84 1.98 M151.06 160.47 C183.89 121.94, 217.99 82.03, 288.84 1.98 M156.71 160.07 C200.49 112.86, 243.66 60.92, 293.82 2.34 M156.71 160.07 C187.71 124.53, 218.49 89.95, 293.82 2.34 M161.69 160.43 C196.64 119.46, 234.26 79.61, 299.47 1.94 M161.69 160.43 C211.76 101.67, 262.32 43.95, 299.47 1.94 M167.34 160.04 C212.5 109.57, 258.12 54.98, 304.45 2.3 M167.34 160.04 C196.27 125.96, 225.95 92.31, 304.45 2.3 M172.32 160.4 C228.04 99.58, 279.04 37.38, 310.1 1.91 M172.32 160.4 C205.72 121.42, 240.73 82.73, 310.1 1.91 M177.97 160 C215.7 113.69, 255.64 69.29, 315.08 2.27 M177.97 160 C213.09 117.39, 249.47 75.38, 315.08 2.27 M182.95 160.36 C231.4 109.1, 276.95 56.35, 320.73 1.88 M182.95 160.36 C223.99 114.26, 264.5 66.15, 320.73 1.88 M188.6 159.97 C224.25 118.66, 256.64 79.71, 325.71 2.24 M188.6 159.97 C220.86 124.72, 251 90.13, 325.71 2.24 M193.58 160.33 C246.24 98.87, 300.62 38.76, 331.36 1.84 M193.58 160.33 C232.78 115.45, 272.28 69.82, 331.36 1.84 M199.23 159.94 C235.57 120.97, 270.63 78.42, 336.34 2.2 M199.23 159.94 C240.75 115.05, 279.17 69.87, 336.34 2.2 M204.21 160.3 C233.33 127.16, 263.27 91.16, 341.99 1.81 M204.21 160.3 C243.84 112.58, 286.27 63.39, 341.99 1.81 M209.86 159.9 C259.15 101.77, 311.09 42.44, 348.94 -0.1 M209.86 159.9 C250.39 113.19, 290.18 67.14, 348.94 -0.1 M214.84 160.26 C270.03 96.93, 324.56 34.34, 353.27 1.02 M214.84 160.26 C244.09 126.53, 271.39 93.69, 353.27 1.02 M220.49 159.87 C266.75 104.86, 315.45 52.17, 358.26 1.38 M220.49 159.87 C248.19 128.18, 277.89 95.7, 358.26 1.38 M225.47 160.23 C256.51 119.47, 292.07 83.56, 363.25 1.74 M225.47 160.23 C275.46 103.67, 324.99 45.42, 363.25 1.74 M231.12 159.83 C261.23 124.52, 295.03 90.51, 366.27 4.36 M231.12 159.83 C267.57 120.32, 302.78 80.03, 366.27 4.36 M236.1 160.19 C288.91 99.63, 343.4 36.36, 369.94 6.23 M236.1 160.19 C277.41 110.33, 320.95 61.15, 369.94 6.23 M241.75 159.8 C291.87 105.29, 338.24 53.17, 373.62 8.1 M241.75 159.8 C267.63 128.74, 296.11 96.74, 373.62 8.1 M246.73 160.16 C278.24 120.91, 314.58 82.34, 375.98 11.48 M246.73 160.16 C289.5 110.81, 333.44 61.34, 375.98 11.48 M252.38 159.76 C293.58 112.99, 333.59 65.41, 378.34 14.86 M252.38 159.76 C284.89 120.5, 318.11 82.89, 378.34 14.86 M257.36 160.12 C299.06 116.09, 338.4 68.51, 380.05 18.99 M257.36 160.12 C287.8 127.26, 316.59 94.17, 380.05 18.99 M262.35 160.48 C291.19 128.82, 320.22 92.82, 380.44 24.64 M262.35 160.48 C305.75 110.99, 348.8 60.68, 380.44 24.64 M268 160.09 C295.99 126.65, 324.38 94.93, 380.18 31.03 M268 160.09 C305.48 113.56, 346.26 68.33, 380.18 31.03 M272.98 160.45 C300.7 126.53, 333.16 92.92, 380.58 36.68 M272.98 160.45 C305.87 121.79, 336.75 85.94, 380.58 36.68 M278.63 160.05 C320.4 113.9, 361.04 68.81, 380.31 43.07 M278.63 160.05 C298.96 136.24, 321.13 111.61, 380.31 43.07 M283.61 160.41 C312.35 129.07, 339.33 95.27, 380.71 48.72 M283.61 160.41 C303.79 137.9, 322.18 116.59, 380.71 48.72 M289.26 160.02 C315.27 127, 343.11 96.24, 380.45 55.12 M289.26 160.02 C309.78 137.08, 328.59 114.4, 380.45 55.12 M294.24 160.38 C328.98 121.19, 363.49 82.36, 380.84 60.76 M294.24 160.38 C316.74 136.84, 336.99 112.45, 380.84 60.76 M299.89 159.99 C331.76 122.69, 365.16 89.55, 380.58 67.16 M299.89 159.99 C332 124.12, 363.77 87.7, 380.58 67.16 M304.87 160.35 C326.16 137.86, 347.71 116.44, 380.98 72.8 M304.87 160.35 C330.83 131.3, 356.58 101.95, 380.98 72.8 M310.52 159.95 C326.5 137.85, 345.25 118.48, 380.71 79.2 M310.52 159.95 C325.14 141.71, 340.84 124.64, 380.71 79.2 M315.5 160.31 C340.53 133.97, 361.29 107.11, 380.45 85.59 M315.5 160.31 C330.63 141.56, 347.36 123.53, 380.45 85.59 M321.15 159.92 C344.13 131.22, 367.84 105.82, 380.85 91.24 M321.15 159.92 C345.9 132.02, 368.88 104.55, 380.85 91.24 M326.13 160.28 C342.07 141.12, 360.56 121.04, 380.59 97.64 M326.13 160.28 C340.94 143.69, 354.02 127.35, 380.59 97.64 M331.78 159.88 C342.96 145.98, 357.59 130.83, 380.98 103.28 M331.78 159.88 C348.15 142.17, 362.3 123.63, 380.98 103.28 M336.76 160.24 C351.32 143.98, 369.06 126.89, 380.72 109.68 M336.76 160.24 C350.83 142.82, 366.02 126.49, 380.72 109.68 M342.41 159.85 C349.11 149.58, 360.52 139.02, 381.11 115.32 M342.41 159.85 C355.18 145.13, 366.73 130.42, 381.11 115.32 M349.36 157.94 C356.74 147.66, 364.82 139.03, 380.85 121.72 M349.36 157.94 C360.28 145.48, 371.3 133.8, 380.85 121.72 M355 157.55 C366.48 143.93, 376.01 134, 381.9 126.61 M355 157.55 C363.57 146.93, 372.11 138.1, 381.9 126.61 M361.3 156.4 C365.72 150.5, 370.21 144.63, 380.98 133.76 M361.3 156.4 C365.2 151.16, 369.04 146.62, 380.98 133.76 M368.91 153.74 C372.07 152.36, 372.28 148.31, 380.07 140.91 M368.91 153.74 C373.35 148.54, 375.93 145.42, 380.07 140.91" stroke="#ffc9c9" stroke-width="0.5" fill="none"></path><path d="M32 0 M32 0 C124.77 0.45, 217.88 1.14, 348.85 0 M32 0 C158.56 -0.62, 284.74 -1.12, 348.85 0 M348.85 0 C369.49 -0.23, 379.17 9.68, 380.85 32 M348.85 0 C371.54 -1.43, 381.87 12.08, 380.85 32 M380.85 32 C379.36 67.5, 380.99 101.78, 380.85 125.73 M380.85 32 C381.43 63.1, 382.12 93.97, 380.85 125.73 M380.85 125.73 C382.57 147.46, 368.54 158.86, 348.85 157.73 M380.85 125.73 C382.83 146.02, 368.71 158.44, 348.85 157.73 M348.85 157.73 C274.23 155.57, 199.53 155.81, 32 157.73 M348.85 157.73 C280.3 155.96, 211.87 155.56, 32 157.73 M32 157.73 C10.85 159.23, 1.92 148.47, 0 125.73 M32 157.73 C10.67 159.15, 0.44 148.43, 0 125.73 M0 125.73 C1.35 94.35, 1.22 59.6, 0 32 M0 125.73 C0.99 103.79, -0.11 84.26, 0 32 M0 32 C-1.85 10.23, 12.3 -0.59, 32 0 M0 32 C0.96 12.65, 10.64 0.49, 32 0" stroke="#1e1e1e" stroke-width="1" fill="none"></path></g><g transform="translate(648.5844740422581 132.14509615158838) rotate(0 33.099998474121094 12.5)"><text x="33.099998474121094" y="0" font-family="Virgil, Segoe UI Emoji" font-size="20px" fill="#1e1e1e" text-anchor="middle" style="white-space: pre;" direction="ltr" dominant-baseline="text-before-edge">Header</text></g><g stroke-linecap="round" transform="translate(37.31151236234882 240.8201648312945) rotate(0 190.42663598581794 78.86355631735896)"><path d="M7.86 8.16 C7.86 8.16, 7.86 8.16, 7.86 8.16 M7.86 8.16 C7.86 8.16, 7.86 8.16, 7.86 8.16 M3.66 19.09 C8.78 13.49, 9.58 11.84, 18.1 2.48 M3.66 19.09 C7.69 15.01, 10.38 11.12, 18.1 2.48 M2.75 26.24 C8.43 17.19, 17.42 10.45, 24.4 1.33 M2.75 26.24 C7.85 20.38, 11.58 16.7, 24.4 1.33 M2.48 32.64 C7.2 25.54, 13.58 20.07, 30.7 0.18 M2.48 32.64 C9.2 24.57, 15 17.29, 30.7 0.18 M2.88 38.28 C14.97 23.88, 23.51 12.65, 34.37 2.05 M2.88 38.28 C8.97 29.51, 16.31 21.77, 34.37 2.05 M2.62 44.68 C17.84 27.74, 30.97 11.97, 39.36 2.41 M2.62 44.68 C17.47 27.36, 32.32 10.84, 39.36 2.41 M2.36 51.07 C14.56 33.32, 29.79 16.96, 45 2.02 M2.36 51.07 C17.95 33.21, 34.05 13.78, 45 2.02 M2.75 56.72 C13.96 45.3, 24.95 34.88, 49.99 2.38 M2.75 56.72 C13.15 43.98, 25.04 30.1, 49.99 2.38 M2.49 63.11 C15.19 49.05, 28.65 32.19, 55.63 1.98 M2.49 63.11 C21.41 42.76, 41.15 19.55, 55.63 1.98 M2.88 68.76 C27.18 41.07, 46.14 17.59, 60.62 2.34 M2.88 68.76 C19.42 50.92, 35.11 31.24, 60.62 2.34 M2.62 75.16 C15.96 59.71, 30.21 44.29, 66.26 1.95 M2.62 75.16 C26.62 46.96, 52 20.82, 66.26 1.95 M2.36 81.55 C29.2 51.17, 57.48 17.75, 71.25 2.31 M2.36 81.55 C24.92 55.82, 47.63 29.79, 71.25 2.31 M2.76 87.2 C31.57 53.96, 61.03 21.09, 76.89 1.91 M2.76 87.2 C27.41 59.81, 51.92 32.69, 76.89 1.91 M2.49 93.59 C19.81 76.67, 34.75 54.89, 81.88 2.27 M2.49 93.59 C33.26 58.9, 62.73 22.79, 81.88 2.27 M2.89 99.24 C31.93 69.34, 58.53 35.11, 87.52 1.88 M2.89 99.24 C35.28 59.83, 68.92 22.25, 87.52 1.88 M2.63 105.64 C37.37 64.18, 73.41 25.17, 92.51 2.24 M2.63 105.64 C35.68 69.63, 66.72 33.37, 92.51 2.24 M2.37 112.03 C33.76 77.6, 62.5 44.79, 98.15 1.85 M2.37 112.03 C26.1 85.89, 50.79 58.1, 98.15 1.85 M2.76 117.68 C41.43 73.7, 74.05 35.51, 103.14 2.21 M2.76 117.68 C34.36 80.75, 67.06 43.47, 103.14 2.21 M2.5 124.07 C27.99 94.72, 51.92 65.12, 108.78 1.81 M2.5 124.07 C32.7 89.47, 61.28 55.01, 108.78 1.81 M2.89 129.72 C40.81 80.86, 82.76 34.78, 113.77 2.17 M2.89 129.72 C30.26 98.52, 57.19 66.59, 113.77 2.17 M3.29 135.36 C50.18 82.64, 96.75 31.98, 119.41 1.78 M3.29 135.36 C40.33 90.8, 80.09 46.08, 119.41 1.78 M4.34 140.25 C38.24 101.54, 74.95 61.15, 124.4 2.14 M4.34 140.25 C43.67 95.24, 83.44 49.43, 124.4 2.14 M4.73 145.89 C34.48 112.59, 61.14 81.5, 130.04 1.74 M4.73 145.89 C51.21 91.57, 98.57 35.55, 130.04 1.74 M7.75 148.52 C36.07 113.98, 67.18 78.46, 135.03 2.1 M7.75 148.52 C37.13 115.87, 66.86 81.75, 135.03 2.1 M10.77 151.14 C60.87 94.12, 111.32 38.41, 140.67 1.71 M10.77 151.14 C44.17 113.79, 77.34 76.78, 140.67 1.71 M13.79 153.76 C62.08 98.61, 108.31 44.03, 145.66 2.07 M13.79 153.76 C67.31 93.83, 118.28 35.56, 145.66 2.07 M17.47 155.63 C54.01 113.56, 89.67 71.88, 150.65 2.43 M17.47 155.63 C58.41 107.16, 99.53 59.71, 150.65 2.43 M20.48 158.26 C53.36 125.21, 83.96 88.8, 156.29 2.03 M20.48 158.26 C70.31 101.24, 119.4 43.69, 156.29 2.03 M25.47 158.62 C70.69 108.82, 114.59 55.16, 161.28 2.39 M25.47 158.62 C74.88 102.67, 125.23 45.17, 161.28 2.39 M29.8 159.73 C65.72 120.21, 103.38 78.25, 166.92 2 M29.8 159.73 C71.25 112.13, 112.42 65.32, 166.92 2 M34.79 160.09 C75.86 113.18, 118.06 63.66, 171.91 2.36 M34.79 160.09 C83.78 103.4, 132.92 46.62, 171.91 2.36 M39.78 160.45 C81.68 111.09, 122.68 67.35, 177.55 1.96 M39.78 160.45 C71.07 123.9, 101.69 89.54, 177.55 1.96 M45.42 160.06 C75.24 128.02, 101.21 93.91, 182.54 2.32 M45.42 160.06 C84.65 113.62, 123.13 68.74, 182.54 2.32 M50.41 160.42 C79.29 126.34, 107.95 92.68, 188.18 1.93 M50.41 160.42 C99.74 104.02, 149.56 47.98, 188.18 1.93 M56.05 160.02 C104.69 102.78, 156.57 43.52, 193.17 2.29 M56.05 160.02 C93.82 115.7, 132.89 71.59, 193.17 2.29 M61.04 160.38 C104.34 109.11, 146.88 61.29, 198.81 1.9 M61.04 160.38 C91.27 125.02, 122.75 89.89, 198.81 1.9 M66.68 159.99 C114.68 104.6, 161.81 48.41, 203.8 2.26 M66.68 159.99 C109.73 109.46, 153.48 58.57, 203.8 2.26 M71.67 160.35 C119.48 104.71, 169.94 49.54, 209.44 1.86 M71.67 160.35 C118.01 107.95, 164.15 52.89, 209.44 1.86 M77.31 159.96 C111.9 119.68, 145.97 82.18, 214.43 2.22 M77.31 159.96 C121.02 108.06, 163.34 57.72, 214.43 2.22 M82.3 160.32 C121.76 116.29, 161 72.38, 220.07 1.83 M82.3 160.32 C123.06 113.72, 163.66 69.41, 220.07 1.83 M87.94 159.92 C140.48 100.29, 190.66 39.79, 225.06 2.19 M87.94 159.92 C120.77 121.67, 154.18 82.6, 225.06 2.19 M92.93 160.28 C139.7 105.01, 185.85 53.5, 230.7 1.79 M92.93 160.28 C133.05 116.08, 170.55 71.85, 230.7 1.79 M98.57 159.89 C128.55 125.31, 157.61 92.9, 235.69 2.15 M98.57 159.89 C152.14 99.22, 205.46 37.3, 235.69 2.15 M103.56 160.25 C149.27 108.82, 194.06 55.14, 241.33 1.76 M103.56 160.25 C157.62 97.02, 212.38 36.06, 241.33 1.76 M109.2 159.85 C144.27 119.47, 176.94 81.03, 246.32 2.12 M109.2 159.85 C149.49 111.09, 192.32 63.78, 246.32 2.12 M114.19 160.21 C165.71 104.68, 214.35 46.92, 251.96 1.72 M114.19 160.21 C155.7 112.52, 197.05 64.59, 251.96 1.72 M119.83 159.82 C160.92 112.1, 200.36 63.3, 256.95 2.08 M119.83 159.82 C158.69 115.92, 195.69 72.09, 256.95 2.08 M124.82 160.18 C168.68 110.89, 214.32 59.25, 262.59 1.69 M124.82 160.18 C176.65 99.76, 230.17 38.98, 262.59 1.69 M130.46 159.78 C163.81 119.49, 197.01 83.28, 267.58 2.05 M130.46 159.78 C162.3 124.71, 194.23 86.86, 267.58 2.05 M135.45 160.14 C184.69 104.27, 233.91 49.71, 272.56 2.41 M135.45 160.14 C163.15 128.17, 189.93 98.13, 272.56 2.41 M140.43 160.5 C178.7 118.44, 212.51 77.25, 278.21 2.01 M140.43 160.5 C172.63 121.12, 206.79 83.2, 278.21 2.01 M146.08 160.11 C177.14 125.34, 204.73 93.36, 283.19 2.37 M146.08 160.11 C175.22 126.4, 203.61 95.18, 283.19 2.37 M151.06 160.47 C203.32 101.14, 256.19 40.66, 288.84 1.98 M151.06 160.47 C182.26 124.73, 213.42 89.18, 288.84 1.98 M156.71 160.07 C202.77 108.26, 249.22 54.48, 293.82 2.34 M156.71 160.07 C189.66 121.52, 223.59 82.52, 293.82 2.34 M161.69 160.43 C211.38 103.5, 260.13 46.48, 299.47 1.94 M161.69 160.43 C195.12 125.32, 226.87 87.59, 299.47 1.94 M167.34 160.04 C212.16 108.61, 254.98 60.74, 304.45 2.3 M167.34 160.04 C205.19 118.02, 240.15 77.3, 304.45 2.3 M172.32 160.4 C226.54 98.35, 280.91 35.32, 310.1 1.91 M172.32 160.4 C221.85 102.46, 270.04 46.66, 310.1 1.91 M177.97 160 C215.32 116.83, 250.3 72.85, 315.08 2.27 M177.97 160 C229.28 99.87, 281.77 39.22, 315.08 2.27 M182.95 160.36 C238.75 98.21, 291.28 36.05, 320.73 1.88 M182.95 160.36 C217.29 122.66, 251.85 82.23, 320.73 1.88 M188.6 159.97 C226.17 116.64, 262.34 74.9, 325.71 2.24 M188.6 159.97 C220.71 122.95, 252.86 85.74, 325.71 2.24 M193.58 160.33 C237.95 109.21, 283.57 57.95, 331.36 1.84 M193.58 160.33 C246.84 99.85, 300.26 38.65, 331.36 1.84 M199.23 159.94 C235.94 119.04, 273.37 74.68, 336.34 2.2 M199.23 159.94 C231.04 123.11, 262.34 88, 336.34 2.2 M204.21 160.3 C243.84 117.33, 281.34 71.78, 341.99 1.81 M204.21 160.3 C256.9 98.76, 310.91 36.87, 341.99 1.81 M209.86 159.9 C236.68 125.17, 268.88 92.66, 348.94 -0.1 M209.86 159.9 C248.25 115.88, 286.02 73.19, 348.94 -0.1 M214.84 160.26 C268.71 102.1, 320.56 42.54, 353.27 1.02 M214.84 160.26 C260.7 107.53, 305.23 54.87, 353.27 1.02 M220.49 159.87 C267.9 106.91, 313.04 55.04, 358.26 1.38 M220.49 159.87 C258.92 116.83, 296.55 72.56, 358.26 1.38 M225.47 160.23 C260.33 116.69, 297.59 76.09, 363.25 1.74 M225.47 160.23 C255.21 127.77, 282.63 94.72, 363.25 1.74 M231.12 159.83 C261.76 123.57, 294.2 88.17, 366.27 4.36 M231.12 159.83 C260.47 124.82, 289.95 89.36, 366.27 4.36 M236.1 160.19 C270.89 121.67, 301.77 83.95, 369.94 6.23 M236.1 160.19 C273.13 116.67, 311.35 74.17, 369.94 6.23 M241.75 159.8 C296.43 99.01, 346.75 40.13, 373.62 8.1 M241.75 159.8 C279.43 113.23, 319.96 69.08, 373.62 8.1 M246.73 160.16 C290.64 110.16, 331.58 62.33, 375.98 11.48 M246.73 160.16 C292.7 108.66, 338.89 56.91, 375.98 11.48 M252.38 159.76 C291.15 114.24, 330.59 66.32, 378.34 14.86 M252.38 159.76 C299.74 103.09, 346.98 47.56, 378.34 14.86 M257.36 160.12 C301.08 108.07, 348.5 54.4, 380.05 18.99 M257.36 160.12 C287.23 125.09, 316.3 92.35, 380.05 18.99 M262.35 160.48 C302 115.59, 344.03 69.4, 380.44 24.64 M262.35 160.48 C301.61 115.68, 342.25 67.84, 380.44 24.64 M268 160.09 C310.06 112.92, 350.82 64.56, 380.18 31.03 M268 160.09 C304.78 117.92, 340.38 76.22, 380.18 31.03 M272.98 160.45 C292.29 132.82, 318.23 109.12, 380.58 36.68 M272.98 160.45 C310.23 118.59, 346.39 76.69, 380.58 36.68 M278.63 160.05 C311.65 120.17, 343.04 82.31, 380.31 43.07 M278.63 160.05 C302.46 133.33, 326.28 106.6, 380.31 43.07 M283.61 160.41 C315.73 121.91, 349.63 84.94, 380.71 48.72 M283.61 160.41 C314.85 124.79, 346.36 89.41, 380.71 48.72 M289.26 160.02 C324.02 119.28, 360.74 78.74, 380.45 55.12 M289.26 160.02 C318.79 126.64, 348.34 92.58, 380.45 55.12 M294.24 160.38 C325.63 125.28, 353.93 92.53, 380.84 60.76 M294.24 160.38 C322.96 127.9, 351.81 94.21, 380.84 60.76 M299.89 159.99 C330.63 124.07, 357.77 93.65, 380.58 67.16 M299.89 159.99 C333.26 122.81, 365.15 84.61, 380.58 67.16 M304.87 160.35 C330.58 133.53, 352.39 105.46, 380.98 72.8 M304.87 160.35 C323.02 140.74, 339.16 121.35, 380.98 72.8 M310.52 159.95 C336.81 132.31, 359.31 104.53, 380.71 79.2 M310.52 159.95 C325.55 143.8, 341.15 125.88, 380.71 79.2 M315.5 160.31 C336.6 135.07, 355.66 111.91, 380.45 85.59 M315.5 160.31 C336.36 136.02, 356.05 112.76, 380.45 85.59 M321.15 159.92 C338.66 136.86, 359.32 116.15, 380.85 91.24 M321.15 159.92 C340.27 136.78, 360.18 113.16, 380.85 91.24 M326.13 160.28 C344.66 142.55, 361.5 121.46, 380.59 97.64 M326.13 160.28 C344.52 138.11, 363.17 118.26, 380.59 97.64 M331.78 159.88 C349.59 140.1, 362.75 123.85, 380.98 103.28 M331.78 159.88 C347.16 141.55, 361.95 124.65, 380.98 103.28 M336.76 160.24 C347.06 147.53, 356.59 136.94, 380.72 109.68 M336.76 160.24 C349.45 146.34, 363.21 131.37, 380.72 109.68 M342.41 159.85 C355.33 146.51, 365.9 131.52, 381.11 115.32 M342.41 159.85 C354.46 146.49, 366.72 132.35, 381.11 115.32 M349.36 157.94 C358.86 148.92, 367.1 138.02, 380.85 121.72 M349.36 157.94 C362.49 144.62, 375.02 128.66, 380.85 121.72 M355 157.55 C363.6 147.15, 370.9 136.77, 381.9 126.61 M355 157.55 C361.37 150.24, 368.36 142.16, 381.9 126.61 M361.3 156.4 C366.06 148.13, 373.61 142.02, 380.98 133.76 M361.3 156.4 C367.62 149.51, 375.18 140.99, 380.98 133.76 M368.91 153.74 C372.45 148.36, 376.78 142.45, 380.07 140.91 M368.91 153.74 C372.44 149.81, 374.99 146.37, 380.07 140.91" stroke="#b2f2bb" stroke-width="0.5" fill="none"></path><path d="M32 0 M32 0 C138.34 -2.99, 247.81 -2, 348.85 0 M32 0 C97.45 0.75, 163.21 1.6, 348.85 0 M348.85 0 C368.31 0.21, 379.39 10.74, 380.85 32 M348.85 0 C371.51 -0.71, 379.42 11.27, 380.85 32 M380.85 32 C381.9 68.01, 381.24 104.27, 380.85 125.73 M380.85 32 C380.34 63.6, 379.44 92.96, 380.85 125.73 M380.85 125.73 C382.65 147.71, 371.87 158.21, 348.85 157.73 M380.85 125.73 C378.73 148.16, 371.89 159.98, 348.85 157.73 M348.85 157.73 C236.19 158.39, 124.76 158.98, 32 157.73 M348.85 157.73 C234.06 157.94, 118.59 157.53, 32 157.73 M32 157.73 C9.51 156.74, -1.75 145.62, 0 125.73 M32 157.73 C11.31 157.38, 0.77 146.65, 0 125.73 M0 125.73 C0.08 96.43, -0.97 68.5, 0 32 M0 125.73 C0.16 95.51, 0.81 65.33, 0 32 M0 32 C-1.54 10.87, 12.36 0.23, 32 0 M0 32 C-1.05 8.93, 9.94 -0.77, 32 0" stroke="#1e1e1e" stroke-width="1" fill="none"></path></g><g transform="translate(135.63814987404567 307.1837211486535) rotate(0 92.0999984741211 12.5)"><text x="92.0999984741211" y="0" font-family="Virgil, Segoe UI Emoji" font-size="20px" fill="#1e1e1e" text-anchor="middle" style="white-space: pre;" direction="ltr" dominant-baseline="text-before-edge">Topology Definition</text></g><g stroke-linecap="round" transform="translate(491.64032966259083 235.43215384254154) rotate(0 190.4266359858177 78.86355631735896)"><path d="M7.86 8.16 C7.86 8.16, 7.86 8.16, 7.86 8.16 M7.86 8.16 C7.86 8.16, 7.86 8.16, 7.86 8.16 M3.66 19.09 C7.55 14.13, 12.4 8.56, 18.1 2.48 M3.66 19.09 C7.45 15.14, 12.22 9.41, 18.1 2.48 M2.75 26.24 C9.15 18.59, 14.1 13.79, 24.4 1.33 M2.75 26.24 C9.89 18.34, 15.36 10.75, 24.4 1.33 M2.48 32.64 C8 25.67, 15.42 16.19, 30.7 0.18 M2.48 32.64 C11.83 20.76, 20.97 10.67, 30.7 0.18 M2.88 38.28 C14.43 27.15, 20.65 17.19, 34.37 2.05 M2.88 38.28 C14.78 24.17, 27.46 11.06, 34.37 2.05 M2.62 44.68 C11.93 33.3, 19.39 26.2, 39.36 2.41 M2.62 44.68 C17.77 26.98, 31.06 11.51, 39.36 2.41 M2.36 51.07 C15.4 39.66, 25.68 24.22, 45 2.02 M2.36 51.07 C14.97 35.82, 26.79 22.44, 45 2.02 M2.75 56.72 C14.97 44.62, 23.34 31.66, 49.99 2.38 M2.75 56.72 C14.6 41.83, 28.13 28.18, 49.99 2.38 M2.49 63.11 C20.74 43.77, 38.96 21.83, 55.63 1.98 M2.49 63.11 C22.24 39.3, 41.53 16.19, 55.63 1.98 M2.88 68.76 C20.21 46.74, 40.08 22.66, 60.62 2.34 M2.88 68.76 C21.3 49.05, 36.89 29.9, 60.62 2.34 M2.62 75.16 C27.16 49.64, 49.51 21.76, 66.26 1.95 M2.62 75.16 C20.71 53.54, 40.84 31.79, 66.26 1.95 M2.36 81.55 C29.09 53.1, 54.1 24.03, 71.25 2.31 M2.36 81.55 C26.74 54.5, 53.11 25.6, 71.25 2.31 M2.76 87.2 C26.59 61.94, 48.03 32.15, 76.89 1.91 M2.76 87.2 C30.98 53.82, 59.71 20.7, 76.89 1.91 M2.49 93.59 C19.61 71.89, 38.45 51.5, 81.88 2.27 M2.49 93.59 C27.17 65.52, 50.29 38.46, 81.88 2.27 M2.89 99.24 C19.04 80.29, 38.16 58.07, 87.52 1.88 M2.89 99.24 C27.79 71.05, 52.53 41.11, 87.52 1.88 M2.63 105.64 C25.08 77.31, 50.38 49.11, 92.51 2.24 M2.63 105.64 C26.32 76.39, 51.57 49.25, 92.51 2.24 M2.37 112.03 C35.94 74.98, 64.47 38.06, 98.15 1.85 M2.37 112.03 C33.23 76.51, 65.61 39.87, 98.15 1.85 M2.76 117.68 C26.19 87.86, 52.24 61.41, 103.14 2.21 M2.76 117.68 C25.01 92.52, 45.75 67.59, 103.14 2.21 M2.5 124.07 C37.86 89.03, 66.51 50.44, 108.78 1.81 M2.5 124.07 C38.8 81.89, 73.96 40.47, 108.78 1.81 M2.89 129.72 C37.85 88.04, 75.17 43.31, 113.77 2.17 M2.89 129.72 C41.28 85.72, 80.14 41.76, 113.77 2.17 M3.29 135.36 C47.31 83.52, 92.67 31.98, 119.41 1.78 M3.29 135.36 C29.93 106.13, 54.86 77.44, 119.41 1.78 M4.34 140.25 C51.33 84.53, 99.84 31.55, 124.4 2.14 M4.34 140.25 C39.07 98.79, 74.92 59.7, 124.4 2.14 M4.73 145.89 C46.44 95.74, 91.26 46.74, 130.04 1.74 M4.73 145.89 C53.3 90.75, 102.27 34.85, 130.04 1.74 M7.75 148.52 C44.37 111.69, 74.84 70.18, 135.03 2.1 M7.75 148.52 C55.19 95.89, 101.91 42.69, 135.03 2.1 M10.77 151.14 C40.54 120.6, 65.21 89.47, 140.67 1.71 M10.77 151.14 C52.88 105.19, 92.74 56.57, 140.67 1.71 M13.79 153.76 C48.86 113.15, 84.75 73.43, 145.66 2.07 M13.79 153.76 C49.31 112.81, 87.3 70.72, 145.66 2.07 M17.47 155.63 C60.15 108.82, 104.25 57.98, 150.65 2.43 M17.47 155.63 C47.85 119.66, 78.05 85.55, 150.65 2.43 M20.48 158.26 C61.31 113.42, 98.94 68.44, 156.29 2.03 M20.48 158.26 C50.66 122.82, 81.12 86.45, 156.29 2.03 M25.47 158.62 C58.98 118.36, 97.34 76.06, 161.28 2.39 M25.47 158.62 C76.93 98.17, 129.42 37.65, 161.28 2.39 M29.8 159.73 C76.09 105.77, 123.98 56.2, 166.92 2 M29.8 159.73 C58.43 127.14, 85.35 95.04, 166.92 2 M34.79 160.09 C82.38 103.7, 134.17 48.94, 171.91 2.36 M34.79 160.09 C85.97 100.73, 138.21 42.32, 171.91 2.36 M39.78 160.45 C90.95 102.77, 140.39 43.39, 177.55 1.96 M39.78 160.45 C79.7 115.13, 119.04 69.69, 177.55 1.96 M45.42 160.06 C91.77 107.31, 137.7 53.24, 182.54 2.32 M45.42 160.06 C78.21 122.71, 109.81 84.4, 182.54 2.32 M50.41 160.42 C81.33 126.42, 111.85 89.23, 188.18 1.93 M50.41 160.42 C99.89 105.46, 148.16 48.78, 188.18 1.93 M56.05 160.02 C95.91 115.46, 135.48 69.98, 193.17 2.29 M56.05 160.02 C108.34 103.32, 157.45 44.84, 193.17 2.29 M61.04 160.38 C108.34 103.95, 158.51 46.88, 198.81 1.9 M61.04 160.38 C111.67 101.67, 161.81 43.09, 198.81 1.9 M66.68 159.99 C113.05 109.35, 158.97 55.33, 203.8 2.26 M66.68 159.99 C119.72 98.74, 171.1 38.6, 203.8 2.26 M71.67 160.35 C107.42 116.48, 145.67 71.67, 209.44 1.86 M71.67 160.35 C113.65 114.25, 155.11 66.86, 209.44 1.86 M77.31 159.96 C120.08 113.25, 162.53 63.9, 214.43 2.22 M77.31 159.96 C113.69 118.71, 150.51 77.13, 214.43 2.22 M82.3 160.32 C119.04 117.38, 159.44 73.29, 220.07 1.83 M82.3 160.32 C134.91 97.83, 188.2 36.13, 220.07 1.83 M87.94 159.92 C129.07 114.81, 168.5 69.03, 225.06 2.19 M87.94 159.92 C143.97 97.63, 199.16 34.3, 225.06 2.19 M92.93 160.28 C141.71 104.72, 187.03 51.99, 230.7 1.79 M92.93 160.28 C133.18 115.15, 172.73 70.09, 230.7 1.79 M98.57 159.89 C138.17 113.18, 176.97 68.81, 235.69 2.15 M98.57 159.89 C146.87 103.67, 195.63 46.43, 235.69 2.15 M103.56 160.25 C137.63 121.68, 171.5 83.12, 241.33 1.76 M103.56 160.25 C147.95 109.53, 191.75 57.44, 241.33 1.76 M109.2 159.85 C155.34 102.48, 206.77 46.67, 246.32 2.12 M109.2 159.85 C154.22 107.6, 199.91 55.11, 246.32 2.12 M114.19 160.21 C145.7 124.69, 175.25 88.51, 251.96 1.72 M114.19 160.21 C147.35 122.87, 179.83 85.81, 251.96 1.72 M119.83 159.82 C155 118.53, 193.27 76.11, 256.95 2.08 M119.83 159.82 C154.03 120.67, 188.81 81.77, 256.95 2.08 M124.82 160.18 C169.97 110.45, 214.49 60.22, 262.59 1.69 M124.82 160.18 C158.29 120.84, 190.61 83.69, 262.59 1.69 M130.46 159.78 C163.56 123.26, 194.71 87.56, 267.58 2.05 M130.46 159.78 C170.71 112.52, 213.65 64.93, 267.58 2.05 M135.45 160.14 C168.12 121.85, 201.94 82.57, 272.56 2.41 M135.45 160.14 C181.02 105.02, 228.87 52.68, 272.56 2.41 M140.43 160.5 C193.85 102.07, 247.64 40.84, 278.21 2.01 M140.43 160.5 C168.85 128.51, 197.48 96.61, 278.21 2.01 M146.08 160.11 C185.58 114.73, 223.24 69.65, 283.19 2.37 M146.08 160.11 C181.88 121.35, 216.26 81.83, 283.19 2.37 M151.06 160.47 C193.74 111.14, 235.36 63.1, 288.84 1.98 M151.06 160.47 C195.76 108.51, 240.48 57.59, 288.84 1.98 M156.71 160.07 C187.36 123.05, 216.41 88.11, 293.82 2.34 M156.71 160.07 C193.39 119.05, 229.74 76.31, 293.82 2.34 M161.69 160.43 C206.54 111.96, 249.46 62.22, 299.47 1.94 M161.69 160.43 C210.97 104.19, 259.3 47.96, 299.47 1.94 M167.34 160.04 C198.15 122.44, 229.2 88.27, 304.45 2.3 M167.34 160.04 C219.34 100.52, 271.53 39.78, 304.45 2.3 M172.32 160.4 C216.06 107.21, 261.64 55.37, 310.1 1.91 M172.32 160.4 C208.55 120.49, 243.15 79.8, 310.1 1.91 M177.97 160 C225.59 106.31, 270.04 55.84, 315.08 2.27 M177.97 160 C227.82 102.54, 277.44 45.26, 315.08 2.27 M182.95 160.36 C216.75 121.7, 249.31 81, 320.73 1.88 M182.95 160.36 C226.53 108.79, 270.11 59.63, 320.73 1.88 M188.6 159.97 C239.61 99.74, 291.39 38.05, 325.71 2.24 M188.6 159.97 C228.42 113.83, 269.69 66.76, 325.71 2.24 M193.58 160.33 C244.14 104.72, 291.56 46.69, 331.36 1.84 M193.58 160.33 C230.04 118.54, 266.34 77.36, 331.36 1.84 M199.23 159.94 C236.71 115.39, 273.89 69.9, 336.34 2.2 M199.23 159.94 C231.56 121.31, 264.54 83.47, 336.34 2.2 M204.21 160.3 C246.25 110.86, 288.87 63.14, 341.99 1.81 M204.21 160.3 C257.04 99.35, 308.61 41.08, 341.99 1.81 M209.86 159.9 C253.76 109.52, 296.08 60.96, 348.94 -0.1 M209.86 159.9 C260.71 101.13, 313.02 41.81, 348.94 -0.1 M214.84 160.26 C266.07 101.57, 314.44 42.89, 353.27 1.02 M214.84 160.26 C263.71 102.36, 314.83 45.47, 353.27 1.02 M220.49 159.87 C256.2 121.65, 289.24 80.26, 358.26 1.38 M220.49 159.87 C251.3 126.6, 279.27 93.65, 358.26 1.38 M225.47 160.23 C274.34 108.14, 322.4 53.22, 363.25 1.74 M225.47 160.23 C264.98 112.78, 303.91 66.58, 363.25 1.74 M231.12 159.83 C270.7 118.73, 305.19 74.34, 366.27 4.36 M231.12 159.83 C260.61 125.72, 290.37 90.86, 366.27 4.36 M236.1 160.19 C273.34 116.49, 310.6 77.84, 369.94 6.23 M236.1 160.19 C271.51 120.93, 306.87 80.63, 369.94 6.23 M241.75 159.8 C268.46 130.44, 293.82 98.57, 373.62 8.1 M241.75 159.8 C273.02 125.1, 302.85 90.8, 373.62 8.1 M246.73 160.16 C290.96 111.93, 332.75 62.92, 375.98 11.48 M246.73 160.16 C288 114.18, 328.48 68.16, 375.98 11.48 M252.38 159.76 C286.96 118.9, 322.62 78.32, 378.34 14.86 M252.38 159.76 C297.98 107.85, 343.29 54.67, 378.34 14.86 M257.36 160.12 C295.46 114.91, 329.78 72.07, 380.05 18.99 M257.36 160.12 C297.31 113.7, 335.99 67.49, 380.05 18.99 M262.35 160.48 C286.25 130.8, 312.71 102.35, 380.44 24.64 M262.35 160.48 C302.91 113.07, 342.51 66.87, 380.44 24.64 M268 160.09 C307.78 114.51, 347.6 72.65, 380.18 31.03 M268 160.09 C307.75 116.37, 344.92 73.22, 380.18 31.03 M272.98 160.45 C304.03 127.55, 331.77 93.74, 380.58 36.68 M272.98 160.45 C312.02 115.14, 354 67.92, 380.58 36.68 M278.63 160.05 C302.45 134.35, 322.01 107.94, 380.31 43.07 M278.63 160.05 C301.86 134.36, 323.58 108.93, 380.31 43.07 M283.61 160.41 C306.21 131.8, 328.04 105.93, 380.71 48.72 M283.61 160.41 C308.59 131.49, 335.51 101.15, 380.71 48.72 M289.26 160.02 C310.49 135.14, 331.25 111.72, 380.45 55.12 M289.26 160.02 C321.88 121.47, 357.16 82.53, 380.45 55.12 M294.24 160.38 C318.71 133.96, 340.7 102.88, 380.84 60.76 M294.24 160.38 C320.93 128.69, 349.27 96.06, 380.84 60.76 M299.89 159.99 C327.31 132.96, 352.69 100.78, 380.58 67.16 M299.89 159.99 C320.74 136.13, 340.51 111.88, 380.58 67.16 M304.87 160.35 C323.31 142.83, 339.11 121.21, 380.98 72.8 M304.87 160.35 C320.6 142.48, 335.62 125.3, 380.98 72.8 M310.52 159.95 C333.7 133.77, 356.11 107.09, 380.71 79.2 M310.52 159.95 C329.27 139, 348.87 117.1, 380.71 79.2 M315.5 160.31 C332.24 139.29, 351.77 116.17, 380.45 85.59 M315.5 160.31 C336.71 136.73, 358.23 113.08, 380.45 85.59 M321.15 159.92 C344.08 134.12, 369.35 105.8, 380.85 91.24 M321.15 159.92 C334.8 142.98, 349.6 126.51, 380.85 91.24 M326.13 160.28 C348.21 135.42, 368.4 111.43, 380.59 97.64 M326.13 160.28 C337.29 146.16, 349.44 133.71, 380.59 97.64 M331.78 159.88 C347.73 142.91, 362.78 123.43, 380.98 103.28 M331.78 159.88 C348.77 138.53, 367.3 119.3, 380.98 103.28 M336.76 160.24 C348.05 150.81, 355.91 139.98, 380.72 109.68 M336.76 160.24 C354.19 141.04, 369.8 122.14, 380.72 109.68 M342.41 159.85 C358.32 142.54, 371.89 127.6, 381.11 115.32 M342.41 159.85 C351 148.48, 361.23 137.08, 381.11 115.32 M349.36 157.94 C358.27 146.68, 370.1 134.9, 380.85 121.72 M349.36 157.94 C358.19 148.7, 366.63 138.54, 380.85 121.72 M355 157.55 C364.05 147.73, 374.91 133.83, 381.9 126.61 M355 157.55 C361.98 149.73, 369.29 140.16, 381.9 126.61 M361.3 156.4 C364.97 150.49, 369.72 143.02, 380.98 133.76 M361.3 156.4 C368.83 147.02, 376.21 138.14, 380.98 133.76 M368.91 153.74 C371.04 149.56, 376.92 146.6, 380.07 140.91 M368.91 153.74 C370.74 151.41, 373.97 148.62, 380.07 140.91" stroke="#b2f2bb" stroke-width="0.5" fill="none"></path><path d="M32 0 M32 0 C120.32 0.65, 212.45 -1.14, 348.85 0 M32 0 C140.65 -1.15, 248.11 -1.04, 348.85 0 M348.85 0 C368.51 -0.98, 382.03 9.42, 380.85 32 M348.85 0 C371.2 1.41, 382.42 10.3, 380.85 32 M380.85 32 C380.51 61.53, 380.9 91.42, 380.85 125.73 M380.85 32 C380.88 60.16, 381.39 89.84, 380.85 125.73 M380.85 125.73 C379.2 148.19, 371.91 156.83, 348.85 157.73 M380.85 125.73 C379.38 147.77, 368.71 158.25, 348.85 157.73 M348.85 157.73 C281.58 157.45, 213.02 158.41, 32 157.73 M348.85 157.73 C278.73 157.28, 208.56 158.22, 32 157.73 M32 157.73 C12.59 159.14, 0 148.3, 0 125.73 M32 157.73 C11.11 159.09, 1.25 148.61, 0 125.73 M0 125.73 C0.92 103.3, -2.44 79.58, 0 32 M0 125.73 C-1.07 104.87, -1.52 82.54, 0 32 M0 32 C1.64 10.08, 11.5 1.72, 32 0 M0 32 C-0.03 11.16, 9.41 -1.44, 32 0" stroke="#1e1e1e" stroke-width="1" fill="none"></path></g><g transform="translate(589.9669671742877 301.7957101599005) rotate(0 92.0999984741211 12.5)"><text x="92.0999984741211" y="0" font-family="Virgil, Segoe UI Emoji" font-size="20px" fill="#1e1e1e" text-anchor="middle" style="white-space: pre;" direction="ltr" dominant-baseline="text-before-edge">Topology Definition</text></g><g stroke-linecap="round" transform="translate(35.77050412078415 408.54727746601236) rotate(0 190.42663598581794 78.86355631735896)"><path d="M7.86 8.16 C7.86 8.16, 7.86 8.16, 7.86 8.16 M7.86 8.16 C7.86 8.16, 7.86 8.16, 7.86 8.16 M3.66 19.09 C5.63 14.68, 12.06 12.74, 18.1 2.48 M3.66 19.09 C6.79 15.98, 9.48 10.22, 18.1 2.48 M2.75 26.24 C10.12 18.26, 18.59 9.21, 24.4 1.33 M2.75 26.24 C9.22 19.93, 14.09 14.15, 24.4 1.33 M2.48 32.64 C9.26 22.93, 16.25 16.64, 30.7 0.18 M2.48 32.64 C12.27 20.12, 23.79 8.37, 30.7 0.18 M2.88 38.28 C9.68 30.46, 17.08 22.76, 34.37 2.05 M2.88 38.28 C10.97 27.64, 20.72 17.23, 34.37 2.05 M2.62 44.68 C14.33 29.71, 28.16 15.69, 39.36 2.41 M2.62 44.68 C11.53 35.09, 21.31 24.35, 39.36 2.41 M2.36 51.07 C12.97 39.67, 25.2 24.55, 45 2.02 M2.36 51.07 C13.56 39.34, 25.04 26.4, 45 2.02 M2.75 56.72 C15.76 41.63, 25.11 28.65, 49.99 2.38 M2.75 56.72 C15.21 42.37, 26.7 28.68, 49.99 2.38 M2.49 63.11 C14.49 48.3, 29.64 30.81, 55.63 1.98 M2.49 63.11 C16.56 46.69, 31.85 28.93, 55.63 1.98 M2.88 68.76 C24.67 43.51, 47.93 21.2, 60.62 2.34 M2.88 68.76 C21.13 48.94, 38.08 26.1, 60.62 2.34 M2.62 75.16 C29.16 45.69, 52.96 19.15, 66.26 1.95 M2.62 75.16 C17.29 59.71, 30.31 43.5, 66.26 1.95 M2.36 81.55 C26.24 57.62, 47.52 30.04, 71.25 2.31 M2.36 81.55 C25.16 54.6, 45.87 29.69, 71.25 2.31 M2.76 87.2 C20.34 66.7, 39.57 44.56, 76.89 1.91 M2.76 87.2 C27.05 57.7, 53.57 28.03, 76.89 1.91 M2.49 93.59 C33.45 56.09, 64.47 22.28, 81.88 2.27 M2.49 93.59 C19.4 72.49, 38.39 52.85, 81.88 2.27 M2.89 99.24 C28.22 67.77, 57.51 35.59, 87.52 1.88 M2.89 99.24 C31.77 67.48, 59.74 34.13, 87.52 1.88 M2.63 105.64 C26.24 75.22, 53.04 44.86, 92.51 2.24 M2.63 105.64 C23.92 80.18, 45.44 56.24, 92.51 2.24 M2.37 112.03 C22.04 89.71, 42.98 68.49, 98.15 1.85 M2.37 112.03 C24.92 84.89, 49.08 57.75, 98.15 1.85 M2.76 117.68 C35.68 79.14, 70.4 40.52, 103.14 2.21 M2.76 117.68 C40.7 73.9, 78.56 29.16, 103.14 2.21 M2.5 124.07 C41.42 81.53, 79.18 35.2, 108.78 1.81 M2.5 124.07 C36.97 85.55, 70.39 46.39, 108.78 1.81 M2.89 129.72 C37.37 91.35, 69.92 51.72, 113.77 2.17 M2.89 129.72 C42.65 85.1, 84.24 39.08, 113.77 2.17 M3.29 135.36 C41.59 89.65, 81.97 41.76, 119.41 1.78 M3.29 135.36 C26.79 108.39, 51.13 80.87, 119.41 1.78 M4.34 140.25 C27.35 110.73, 53.73 84.5, 124.4 2.14 M4.34 140.25 C37.11 101.46, 71.88 64.02, 124.4 2.14 M4.73 145.89 C53.23 90.85, 100.82 35.47, 130.04 1.74 M4.73 145.89 C43.86 99.24, 85.06 53.2, 130.04 1.74 M7.75 148.52 C40.74 111.36, 73.1 74.22, 135.03 2.1 M7.75 148.52 C49.69 102.34, 88.99 55.34, 135.03 2.1 M10.77 151.14 C61.65 96.91, 107.68 40.96, 140.67 1.71 M10.77 151.14 C52.84 104.27, 94.55 55.49, 140.67 1.71 M13.79 153.76 C60.84 102.24, 103.86 48.81, 145.66 2.07 M13.79 153.76 C52.39 110.2, 89.73 66.73, 145.66 2.07 M17.47 155.63 C60.34 104.22, 105.65 53.58, 150.65 2.43 M17.47 155.63 C66.87 95.51, 118.55 37.49, 150.65 2.43 M20.48 158.26 C66.25 102.92, 112.57 50.21, 156.29 2.03 M20.48 158.26 C52.69 121.36, 83.46 84.5, 156.29 2.03 M25.47 158.62 C68.35 107.65, 112.68 57.82, 161.28 2.39 M25.47 158.62 C72.34 102.66, 120.77 46.66, 161.28 2.39 M29.8 159.73 C58.9 124.31, 88.35 90.04, 166.92 2 M29.8 159.73 C62.76 120.88, 96.43 83.2, 166.92 2 M34.79 160.09 C77.55 109.92, 123.03 59.26, 171.91 2.36 M34.79 160.09 C65.57 127.24, 93.7 93.9, 171.91 2.36 M39.78 160.45 C81.5 114.09, 120.28 63.67, 177.55 1.96 M39.78 160.45 C77.79 117.01, 116.46 73.26, 177.55 1.96 M45.42 160.06 C92.58 106.45, 138.22 53.64, 182.54 2.32 M45.42 160.06 C95.8 101.27, 147.42 41.1, 182.54 2.32 M50.41 160.42 C80.86 126.24, 110.52 92.73, 188.18 1.93 M50.41 160.42 C89.36 115.93, 127.24 70.96, 188.18 1.93 M56.05 160.02 C103.99 106.36, 151.87 49.01, 193.17 2.29 M56.05 160.02 C86.18 128.22, 113.73 95.64, 193.17 2.29 M61.04 160.38 C109.47 103.09, 161.38 44.75, 198.81 1.9 M61.04 160.38 C102.99 111.53, 145.93 62.33, 198.81 1.9 M66.68 159.99 C111.75 108.04, 154.27 58.39, 203.8 2.26 M66.68 159.99 C109.38 112.38, 150.49 63.64, 203.8 2.26 M71.67 160.35 C106.2 119.37, 139.46 81.95, 209.44 1.86 M71.67 160.35 C123.47 99.31, 178.43 36.89, 209.44 1.86 M77.31 159.96 C129.81 98.01, 182.99 36.3, 214.43 2.22 M77.31 159.96 C108.41 124.28, 138.58 88.28, 214.43 2.22 M82.3 160.32 C127.72 109.31, 172.53 55.28, 220.07 1.83 M82.3 160.32 C117.41 120.01, 153.15 80.41, 220.07 1.83 M87.94 159.92 C125.31 113.75, 165.11 70.08, 225.06 2.19 M87.94 159.92 C135.8 105.89, 181.73 51.82, 225.06 2.19 M92.93 160.28 C142.1 102.25, 194.74 44.78, 230.7 1.79 M92.93 160.28 C124.05 124.34, 155.79 88.12, 230.7 1.79 M98.57 159.89 C139.8 113.16, 179.66 64.79, 235.69 2.15 M98.57 159.89 C153.54 98.6, 207.74 34.8, 235.69 2.15 M103.56 160.25 C143.95 112.73, 182.29 68.16, 241.33 1.76 M103.56 160.25 C150.73 108.88, 195.56 55.68, 241.33 1.76 M109.2 159.85 C158.1 106.19, 202.98 52.33, 246.32 2.12 M109.2 159.85 C157.23 102.83, 207.3 46.13, 246.32 2.12 M114.19 160.21 C160.13 108.71, 204.64 57.92, 251.96 1.72 M114.19 160.21 C163.4 104.14, 212.95 47.81, 251.96 1.72 M119.83 159.82 C157.99 116.52, 196.05 73.85, 256.95 2.08 M119.83 159.82 C166.42 104.78, 214.07 49.67, 256.95 2.08 M124.82 160.18 C161.39 119.2, 200.89 76.37, 262.59 1.69 M124.82 160.18 C153.3 127.08, 182.49 92.67, 262.59 1.69 M130.46 159.78 C181.34 104.74, 230.02 45.35, 267.58 2.05 M130.46 159.78 C172.85 111.05, 215.35 62.07, 267.58 2.05 M135.45 160.14 C165.44 126.79, 193.28 90.33, 272.56 2.41 M135.45 160.14 C188.29 98.52, 241.51 36.23, 272.56 2.41 M140.43 160.5 C172.56 122.28, 205.82 84.93, 278.21 2.01 M140.43 160.5 C188.22 104.76, 237.73 47.18, 278.21 2.01 M146.08 160.11 C176.6 123.43, 210.81 87.95, 283.19 2.37 M146.08 160.11 C182.37 119.39, 217.71 77.85, 283.19 2.37 M151.06 160.47 C197.92 106.96, 243.24 54.66, 288.84 1.98 M151.06 160.47 C181.09 124.48, 212.56 89.17, 288.84 1.98 M156.71 160.07 C190.18 119.22, 225.93 79.54, 293.82 2.34 M156.71 160.07 C185.38 126.85, 215.23 93.9, 293.82 2.34 M161.69 160.43 C196.19 123.92, 227.36 86.67, 299.47 1.94 M161.69 160.43 C216.21 98.52, 271.55 35.24, 299.47 1.94 M167.34 160.04 C200.56 120.85, 233.65 84.25, 304.45 2.3 M167.34 160.04 C210.06 110.15, 251.52 63.45, 304.45 2.3 M172.32 160.4 C220.35 103.99, 269.32 46.18, 310.1 1.91 M172.32 160.4 C226.19 98.84, 281.7 35.81, 310.1 1.91 M177.97 160 C232.77 99.23, 285.15 36.42, 315.08 2.27 M177.97 160 C204.26 129.81, 231.63 98.05, 315.08 2.27 M182.95 160.36 C215.34 123.16, 250.09 83.69, 320.73 1.88 M182.95 160.36 C223.88 111.98, 264.46 65.03, 320.73 1.88 M188.6 159.97 C231.47 112.93, 274.55 61.59, 325.71 2.24 M188.6 159.97 C224.1 120.36, 258.02 81.63, 325.71 2.24 M193.58 160.33 C231.45 117.4, 268.09 73.23, 331.36 1.84 M193.58 160.33 C222.44 128.72, 250.53 95.11, 331.36 1.84 M199.23 159.94 C236.7 114.58, 275.25 70.76, 336.34 2.2 M199.23 159.94 C252.39 98.39, 307.06 34.3, 336.34 2.2 M204.21 160.3 C252.68 102.27, 299.02 48.65, 341.99 1.81 M204.21 160.3 C255.57 101.68, 306.75 41.51, 341.99 1.81 M209.86 159.9 C258.63 102.02, 309.69 45.62, 348.94 -0.1 M209.86 159.9 C249.24 114.03, 288.52 68.69, 348.94 -0.1 M214.84 160.26 C246.96 123.29, 276.98 85.1, 353.27 1.02 M214.84 160.26 C254.95 111.18, 296.8 64.19, 353.27 1.02 M220.49 159.87 C265.85 111.08, 306.4 61.63, 358.26 1.38 M220.49 159.87 C265.8 108.33, 311.15 57.3, 358.26 1.38 M225.47 160.23 C276.37 98.43, 331.48 38.53, 363.25 1.74 M225.47 160.23 C254.36 126.2, 284.01 91.93, 363.25 1.74 M231.12 159.83 C264.1 120.98, 297.96 79.95, 366.27 4.36 M231.12 159.83 C267.91 118.4, 301.12 80.32, 366.27 4.36 M236.1 160.19 C278.4 112.47, 320.54 63.38, 369.94 6.23 M236.1 160.19 C263.84 128.48, 289.63 96.61, 369.94 6.23 M241.75 159.8 C268.68 129.53, 296.57 98.81, 373.62 8.1 M241.75 159.8 C290.72 101.49, 340.83 44.3, 373.62 8.1 M246.73 160.16 C282.95 118.41, 319.68 77.21, 375.98 11.48 M246.73 160.16 C282.51 117.68, 319.18 75.94, 375.98 11.48 M252.38 159.76 C296.02 107.43, 342.27 55.73, 378.34 14.86 M252.38 159.76 C289.58 116.62, 327.78 71.74, 378.34 14.86 M257.36 160.12 C298.76 109.77, 344.27 59.45, 380.05 18.99 M257.36 160.12 C296.81 115.62, 334.48 69.27, 380.05 18.99 M262.35 160.48 C308.64 108.74, 354.86 54.42, 380.44 24.64 M262.35 160.48 C288.48 130.87, 315.58 99.2, 380.44 24.64 M268 160.09 C304.71 118.82, 342.58 73.94, 380.18 31.03 M268 160.09 C302.75 119.45, 339.17 77.15, 380.18 31.03 M272.98 160.45 C314.42 114.2, 356.3 69.57, 380.58 36.68 M272.98 160.45 C297 132.13, 321.74 102.56, 380.58 36.68 M278.63 160.05 C305.14 129.9, 330.52 97.48, 380.31 43.07 M278.63 160.05 C311.04 120.94, 343.79 83.81, 380.31 43.07 M283.61 160.41 C306.68 131.01, 331.15 102.8, 380.71 48.72 M283.61 160.41 C303.35 137.8, 324.43 114.66, 380.71 48.72 M289.26 160.02 C318.46 127.22, 344.33 95.07, 380.45 55.12 M289.26 160.02 C319.22 125.88, 348.82 89.65, 380.45 55.12 M294.24 160.38 C323.13 126.42, 351.93 91.03, 380.84 60.76 M294.24 160.38 C323.18 129.01, 350.24 96.66, 380.84 60.76 M299.89 159.99 C324.95 132.04, 350.19 106.27, 380.58 67.16 M299.89 159.99 C330.43 126.19, 359.67 91.3, 380.58 67.16 M304.87 160.35 C323.13 136.96, 345.43 114.07, 380.98 72.8 M304.87 160.35 C331.36 130.13, 358.18 99.52, 380.98 72.8 M310.52 159.95 C335.75 132.92, 361.64 104.69, 380.71 79.2 M310.52 159.95 C325.72 142.84, 339.73 125.33, 380.71 79.2 M315.5 160.31 C327.1 144.05, 342.97 129.01, 380.45 85.59 M315.5 160.31 C337.1 135.4, 357.86 111.45, 380.45 85.59 M321.15 159.92 C337.54 141.99, 352.97 126.49, 380.85 91.24 M321.15 159.92 C337.8 140.07, 353.34 121.03, 380.85 91.24 M326.13 160.28 C341.19 145.77, 352.4 128.91, 380.59 97.64 M326.13 160.28 C344.98 138.53, 361.57 119.21, 380.59 97.64 M331.78 159.88 C345.94 141.35, 360.2 123.62, 380.98 103.28 M331.78 159.88 C347.39 141.68, 364.5 123.15, 380.98 103.28 M336.76 160.24 C348.22 146.67, 358.04 135.49, 380.72 109.68 M336.76 160.24 C348.89 145.7, 362.86 131.13, 380.72 109.68 M342.41 159.85 C352.69 150.6, 361.72 136.5, 381.11 115.32 M342.41 159.85 C356.08 143.03, 369.1 128.02, 381.11 115.32 M349.36 157.94 C361.11 145.32, 370.22 134.34, 380.85 121.72 M349.36 157.94 C359.67 145.07, 370.18 132.42, 380.85 121.72 M355 157.55 C363.52 147.48, 372.48 137.27, 381.9 126.61 M355 157.55 C363.43 148.65, 370.44 140.02, 381.9 126.61 M361.3 156.4 C365.61 149.18, 371.37 146.76, 380.98 133.76 M361.3 156.4 C367.22 149.16, 373.43 141.81, 380.98 133.76 M368.91 153.74 C371.13 150.4, 373.98 146.52, 380.07 140.91 M368.91 153.74 C373.03 149.52, 377.19 143.9, 380.07 140.91" stroke="#a5d8ff" stroke-width="0.5" fill="none"></path><path d="M32 0 M32 0 C156.78 -1.76, 282.63 0.12, 348.85 0 M32 0 C100.84 2.46, 169.25 2.44, 348.85 0 M348.85 0 C370.71 1.8, 382.59 9.49, 380.85 32 M348.85 0 C370.92 2.05, 382.03 9.69, 380.85 32 M380.85 32 C379.5 59.9, 380.08 90.01, 380.85 125.73 M380.85 32 C381.06 66.01, 379.88 100.8, 380.85 125.73 M380.85 125.73 C379.3 146.33, 371.82 158.97, 348.85 157.73 M380.85 125.73 C381.13 146.35, 371.07 155.93, 348.85 157.73 M348.85 157.73 C244.6 157.09, 139.09 157.04, 32 157.73 M348.85 157.73 C255.01 158.7, 161.5 157.6, 32 157.73 M32 157.73 C9.68 158.1, 1.68 148.79, 0 125.73 M32 157.73 C9.7 157.13, -0.18 145.3, 0 125.73 M0 125.73 C-0.09 104.53, 1.37 84.3, 0 32 M0 125.73 C-0.4 94.97, 0.1 62.37, 0 32 M0 32 C-0.4 9.91, 9.4 0.17, 32 0 M0 32 C-1.41 10.29, 9.75 0.55, 32 0" stroke="#1e1e1e" stroke-width="1" fill="none"></path></g><g transform="translate(139.9304698795513 474.91083378337134) rotate(0 86.26667022705078 12.5)"><text x="86.26667022705078" y="0" font-family="Virgil, Segoe UI Emoji" font-size="20px" fill="#1e1e1e" text-anchor="middle" style="white-space: pre;" direction="ltr" dominant-baseline="text-before-edge">FRR configuration</text></g><g stroke-linecap="round" transform="translate(490.09932142102616 403.1592664772594) rotate(0 190.42663598581817 78.86355631735896)"><path d="M7.86 8.16 C7.86 8.16, 7.86 8.16, 7.86 8.16 M7.86 8.16 C7.86 8.16, 7.86 8.16, 7.86 8.16 M3.66 19.09 C6.08 15.71, 9.5 13.23, 18.1 2.48 M3.66 19.09 C9.88 12.25, 14.57 6.25, 18.1 2.48 M2.75 26.24 C9.81 18.86, 16.54 8.73, 24.4 1.33 M2.75 26.24 C8.22 18.67, 13.83 13.45, 24.4 1.33 M2.48 32.64 C8.73 24.06, 17.29 15.44, 30.7 0.18 M2.48 32.64 C13.44 19.72, 24.57 6.54, 30.7 0.18 M2.88 38.28 C7.88 30.92, 17.02 22.89, 34.37 2.05 M2.88 38.28 C11.41 29.46, 17.93 19.73, 34.37 2.05 M2.62 44.68 C12.49 33.92, 25.13 20.3, 39.36 2.41 M2.62 44.68 C12.97 32.28, 24.83 18, 39.36 2.41 M2.36 51.07 C14.1 36.27, 25.83 23.88, 45 2.02 M2.36 51.07 C15.35 36.05, 28.84 20.49, 45 2.02 M2.75 56.72 C12.59 43.53, 25.48 30.25, 49.99 2.38 M2.75 56.72 C18.67 39.89, 33.09 23.17, 49.99 2.38 M2.49 63.11 C21.91 41.41, 40.09 20.54, 55.63 1.98 M2.49 63.11 C19.67 41.97, 38.9 22.66, 55.63 1.98 M2.88 68.76 C21.32 45.3, 41.55 22.91, 60.62 2.34 M2.88 68.76 C14.77 53.96, 29.68 38.01, 60.62 2.34 M2.62 75.16 C18.33 56.31, 36.62 35.51, 66.26 1.95 M2.62 75.16 C26.14 49.46, 49.04 22.47, 66.26 1.95 M2.36 81.55 C19 62.98, 33.56 45.87, 71.25 2.31 M2.36 81.55 C18.09 65.01, 31.59 49.03, 71.25 2.31 M2.76 87.2 C24.91 58.5, 50.82 31.51, 76.89 1.91 M2.76 87.2 C26.2 59.9, 49.3 34.71, 76.89 1.91 M2.49 93.59 C23.49 69.87, 45.29 44.67, 81.88 2.27 M2.49 93.59 C21.43 71.24, 41.14 48.02, 81.88 2.27 M2.89 99.24 C23.17 75.09, 42.16 53.63, 87.52 1.88 M2.89 99.24 C32.3 64.03, 62.03 30.16, 87.52 1.88 M2.63 105.64 C33.17 70.08, 62.93 37.87, 92.51 2.24 M2.63 105.64 C30.45 75.48, 58.24 43.37, 92.51 2.24 M2.37 112.03 C31.73 74.92, 65.03 40.18, 98.15 1.85 M2.37 112.03 C30.49 80.39, 57.29 48.82, 98.15 1.85 M2.76 117.68 C37.27 80.67, 66.19 42.66, 103.14 2.21 M2.76 117.68 C37.41 76.64, 72.6 36.1, 103.14 2.21 M2.5 124.07 C23.52 95.84, 50.26 69.75, 108.78 1.81 M2.5 124.07 C37.65 82.41, 75.04 39.45, 108.78 1.81 M2.89 129.72 C33.46 92.19, 66.86 56.46, 113.77 2.17 M2.89 129.72 C39.44 88.62, 75.26 48.8, 113.77 2.17 M3.29 135.36 C40.13 93.34, 73.5 51.18, 119.41 1.78 M3.29 135.36 C30.32 104.36, 58.88 73.12, 119.41 1.78 M4.34 140.25 C36.67 104.95, 68.16 67.5, 124.4 2.14 M4.34 140.25 C51.22 88.77, 96.15 36.28, 124.4 2.14 M4.73 145.89 C37.32 109.96, 70.8 73.3, 130.04 1.74 M4.73 145.89 C38.44 107.69, 70.4 70.02, 130.04 1.74 M7.75 148.52 C40.71 105.48, 79.34 63.99, 135.03 2.1 M7.75 148.52 C38.52 113.4, 67.46 77.08, 135.03 2.1 M10.77 151.14 C48.87 105.22, 90.15 58.29, 140.67 1.71 M10.77 151.14 C37.53 117.08, 66.45 84.56, 140.67 1.71 M13.79 153.76 C63.19 98.52, 110.53 42.77, 145.66 2.07 M13.79 153.76 C49.76 114.13, 83.59 73.83, 145.66 2.07 M17.47 155.63 C48 120.84, 74.59 88.35, 150.65 2.43 M17.47 155.63 C56.06 111.98, 95.81 65.58, 150.65 2.43 M20.48 158.26 C57.64 114.17, 97.02 69.52, 156.29 2.03 M20.48 158.26 C64.92 105.21, 109.34 54.48, 156.29 2.03 M25.47 158.62 C68.89 110.5, 110.81 62.89, 161.28 2.39 M25.47 158.62 C76.26 100.24, 126.61 42.42, 161.28 2.39 M29.8 159.73 C64.95 124.1, 95.59 82.8, 166.92 2 M29.8 159.73 C83.35 96.76, 138.65 33.89, 166.92 2 M34.79 160.09 C88.22 103.15, 138.61 42.05, 171.91 2.36 M34.79 160.09 C79.46 111.18, 122.47 62.39, 171.91 2.36 M39.78 160.45 C90.28 100.41, 139.97 42.04, 177.55 1.96 M39.78 160.45 C85.71 107.46, 131.73 54.79, 177.55 1.96 M45.42 160.06 C99.92 96.58, 154.2 33.4, 182.54 2.32 M45.42 160.06 C83.89 113.42, 123.77 68.08, 182.54 2.32 M50.41 160.42 C81.26 123.11, 114.03 86.94, 188.18 1.93 M50.41 160.42 C86.06 117.83, 121.81 77.27, 188.18 1.93 M56.05 160.02 C92.19 118.94, 130.08 73.91, 193.17 2.29 M56.05 160.02 C89.82 118.29, 126.5 77.13, 193.17 2.29 M61.04 160.38 C105.91 109.18, 151.54 59.48, 198.81 1.9 M61.04 160.38 C94.75 120.76, 130.33 81.18, 198.81 1.9 M66.68 159.99 C97.45 123.78, 128.84 89.92, 203.8 2.26 M66.68 159.99 C101.51 118.73, 138.82 77.04, 203.8 2.26 M71.67 160.35 C124 99.17, 176.57 39.04, 209.44 1.86 M71.67 160.35 C100.88 127.22, 129.74 93.73, 209.44 1.86 M77.31 159.96 C105.67 127.01, 131.56 94.52, 214.43 2.22 M77.31 159.96 C127.61 103.05, 175.31 47.02, 214.43 2.22 M82.3 160.32 C120.79 118.1, 157.85 78.15, 220.07 1.83 M82.3 160.32 C134.27 99.92, 186.99 38.33, 220.07 1.83 M87.94 159.92 C132.53 108.49, 178.06 56.25, 225.06 2.19 M87.94 159.92 C123.3 119.1, 157.99 78.35, 225.06 2.19 M92.93 160.28 C128.97 117.93, 168.56 72.64, 230.7 1.79 M92.93 160.28 C128.88 119.39, 164.78 78.5, 230.7 1.79 M98.57 159.89 C151.29 99.83, 205.44 37.47, 235.69 2.15 M98.57 159.89 C138.83 112.59, 179.36 67.23, 235.69 2.15 M103.56 160.25 C137.48 121.75, 171.08 83.86, 241.33 1.76 M103.56 160.25 C140.98 114.86, 181.05 70.55, 241.33 1.76 M109.2 159.85 C163.72 100.13, 215.88 38.3, 246.32 2.12 M109.2 159.85 C149.6 114.16, 188.82 69.98, 246.32 2.12 M114.19 160.21 C144.55 123.21, 177.08 84.72, 251.96 1.72 M114.19 160.21 C158.54 109.65, 202.78 58.96, 251.96 1.72 M119.83 159.82 C172.07 101.77, 220.74 41.76, 256.95 2.08 M119.83 159.82 C154 121.99, 188.15 82.41, 256.95 2.08 M124.82 160.18 C157.66 123.73, 188.58 83.33, 262.59 1.69 M124.82 160.18 C178.83 98.36, 232.56 35.71, 262.59 1.69 M130.46 159.78 C157.88 127.95, 185.3 98.58, 267.58 2.05 M130.46 159.78 C169.03 117.49, 204.67 74.73, 267.58 2.05 M135.45 160.14 C175 114.14, 214.06 71.35, 272.56 2.41 M135.45 160.14 C186.73 104.56, 236.3 47.4, 272.56 2.41 M140.43 160.5 C170.14 127.6, 195.37 93.87, 278.21 2.01 M140.43 160.5 C175.52 121.01, 209.58 80.29, 278.21 2.01 M146.08 160.11 C191.12 106.58, 236.42 53.25, 283.19 2.37 M146.08 160.11 C177.23 124.18, 208.27 88.28, 283.19 2.37 M151.06 160.47 C192.31 112.75, 235.81 62.39, 288.84 1.98 M151.06 160.47 C204.66 99.71, 256.61 39.39, 288.84 1.98 M156.71 160.07 C207.93 99.42, 261.39 38.93, 293.82 2.34 M156.71 160.07 C189.02 122.01, 221.9 84.6, 293.82 2.34 M161.69 160.43 C202.43 113.7, 242.74 67.46, 299.47 1.94 M161.69 160.43 C193.25 123.21, 224.95 85.61, 299.47 1.94 M167.34 160.04 C216.3 104.55, 268.49 47.2, 304.45 2.3 M167.34 160.04 C218.99 99.48, 269.74 41.84, 304.45 2.3 M172.32 160.4 C220.38 105.53, 268.9 48.68, 310.1 1.91 M172.32 160.4 C210.56 114.92, 250.36 69.14, 310.1 1.91 M177.97 160 C206.51 127.69, 238.42 91.76, 315.08 2.27 M177.97 160 C214.63 117.67, 250.76 76.71, 315.08 2.27 M182.95 160.36 C229.13 104.47, 276.63 50.37, 320.73 1.88 M182.95 160.36 C237.39 99.36, 292.43 38, 320.73 1.88 M188.6 159.97 C222.98 118.13, 259.66 79.97, 325.71 2.24 M188.6 159.97 C229.39 113.13, 269.44 66.52, 325.71 2.24 M193.58 160.33 C235.3 109.57, 278.02 59.16, 331.36 1.84 M193.58 160.33 C236.57 111.87, 279.2 63.3, 331.36 1.84 M199.23 159.94 C253.36 95.11, 307.36 35.63, 336.34 2.2 M199.23 159.94 C234.31 119.79, 270.9 77.96, 336.34 2.2 M204.21 160.3 C258.69 98.97, 314.18 33.88, 341.99 1.81 M204.21 160.3 C257.24 100.44, 309.73 38.9, 341.99 1.81 M209.86 159.9 C251.41 111.87, 294.7 64.12, 348.94 -0.1 M209.86 159.9 C256.76 106.97, 301.96 55.25, 348.94 -0.1 M214.84 160.26 C253.36 113.03, 296.98 67.63, 353.27 1.02 M214.84 160.26 C251.84 120.17, 286.85 78.21, 353.27 1.02 M220.49 159.87 C253.91 118.48, 289.2 76.63, 358.26 1.38 M220.49 159.87 C258.62 114.78, 299.13 67.76, 358.26 1.38 M225.47 160.23 C255.61 126.39, 283.67 93.59, 363.25 1.74 M225.47 160.23 C273.81 103, 324.13 45.35, 363.25 1.74 M231.12 159.83 C267.7 113.81, 305.6 71.71, 366.27 4.36 M231.12 159.83 C269.13 114.97, 306.48 70.62, 366.27 4.36 M236.1 160.19 C280.2 113.06, 322.43 60.45, 369.94 6.23 M236.1 160.19 C266.04 126.28, 293.94 94.07, 369.94 6.23 M241.75 159.8 C272.47 122.44, 305.51 81.79, 373.62 8.1 M241.75 159.8 C281.04 114.71, 321.11 68.25, 373.62 8.1 M246.73 160.16 C284.17 116.39, 321.11 72.18, 375.98 11.48 M246.73 160.16 C291.66 108.95, 335.59 57.62, 375.98 11.48 M252.38 159.76 C293.95 112.43, 337.8 63.72, 378.34 14.86 M252.38 159.76 C284.16 121.9, 316.33 86.21, 378.34 14.86 M257.36 160.12 C298.05 109.97, 343.2 63.21, 380.05 18.99 M257.36 160.12 C297.74 111.42, 339.58 62.34, 380.05 18.99 M262.35 160.48 C306.68 110.87, 348.82 62.69, 380.44 24.64 M262.35 160.48 C299.72 116.98, 338.79 73.72, 380.44 24.64 M268 160.09 C295.68 131.78, 322.32 97.63, 380.18 31.03 M268 160.09 C291.72 132.25, 316.57 102.65, 380.18 31.03 M272.98 160.45 C303.24 124.29, 335.74 90.18, 380.58 36.68 M272.98 160.45 C296.82 134.28, 317.19 110.04, 380.58 36.68 M278.63 160.05 C302.23 129.79, 328.73 97.88, 380.31 43.07 M278.63 160.05 C305.5 128.65, 332.33 98, 380.31 43.07 M283.61 160.41 C311.22 126.7, 341.88 94.34, 380.71 48.72 M283.61 160.41 C309.43 131.47, 333.64 101.98, 380.71 48.72 M289.26 160.02 C306.55 139.52, 328.04 119.43, 380.45 55.12 M289.26 160.02 C324.29 121.48, 356.62 82.47, 380.45 55.12 M294.24 160.38 C320.61 125.63, 350.08 96.55, 380.84 60.76 M294.24 160.38 C327.12 122.58, 358.29 86.55, 380.84 60.76 M299.89 159.99 C320.56 135.46, 337.6 114.11, 380.58 67.16 M299.89 159.99 C323.1 131.75, 346.63 105.22, 380.58 67.16 M304.87 160.35 C328.09 132.51, 348.7 106.38, 380.98 72.8 M304.87 160.35 C325.36 136.89, 347.2 111.15, 380.98 72.8 M310.52 159.95 C326.26 140.6, 344.24 119.31, 380.71 79.2 M310.52 159.95 C327.23 141.27, 342.3 124.2, 380.71 79.2 M315.5 160.31 C336.79 134.53, 359.99 108.17, 380.45 85.59 M315.5 160.31 C333.31 140.85, 350.11 121.36, 380.45 85.59 M321.15 159.92 C337.42 141.96, 348.46 128, 380.85 91.24 M321.15 159.92 C334.17 144.97, 347.68 130.61, 380.85 91.24 M326.13 160.28 C343.25 139.95, 360.44 120.27, 380.59 97.64 M326.13 160.28 C338.89 146.65, 352.18 130.43, 380.59 97.64 M331.78 159.88 C349.19 138.57, 367.53 121.42, 380.98 103.28 M331.78 159.88 C347.81 142.93, 361.81 124.65, 380.98 103.28 M336.76 160.24 C352.01 143.64, 368.2 124.75, 380.72 109.68 M336.76 160.24 C347.46 147.28, 360.68 132.43, 380.72 109.68 M342.41 159.85 C353.96 147.63, 363.65 134.47, 381.11 115.32 M342.41 159.85 C352.94 147.25, 363.98 135.31, 381.11 115.32 M349.36 157.94 C358.5 148.15, 365.2 139.63, 380.85 121.72 M349.36 157.94 C358.18 147.91, 365.94 139.56, 380.85 121.72 M355 157.55 C362.1 148.45, 367.65 141.69, 381.9 126.61 M355 157.55 C360.81 149.65, 366.87 143.04, 381.9 126.61 M361.3 156.4 C365.37 148.1, 375.17 142.42, 380.98 133.76 M361.3 156.4 C365.51 150.47, 371.6 145.45, 380.98 133.76 M368.91 153.74 C374.11 150.11, 376.4 145.22, 380.07 140.91 M368.91 153.74 C371.26 151.78, 373.45 147.93, 380.07 140.91" stroke="#a5d8ff" stroke-width="0.5" fill="none"></path><path d="M32 0 M32 0 C129.89 -2.23, 225.59 -0.33, 348.85 0 M32 0 C140.36 0.53, 248.62 0.26, 348.85 0 M348.85 0 C371.37 -1.25, 381.74 11.9, 380.85 32 M348.85 0 C371.75 -0.37, 381 9.12, 380.85 32 M380.85 32 C381.67 66.83, 381.14 97.04, 380.85 125.73 M380.85 32 C382.04 58.29, 380.36 84.76, 380.85 125.73 M380.85 125.73 C382.58 146.16, 368.9 158.35, 348.85 157.73 M380.85 125.73 C379.37 147.58, 368.17 157.83, 348.85 157.73 M348.85 157.73 C257.09 158.78, 166.59 157.71, 32 157.73 M348.85 157.73 C254.35 156.94, 160.39 156.91, 32 157.73 M32 157.73 C10.67 158.96, 0.38 148.25, 0 125.73 M32 157.73 C11.91 159.28, -1.33 149.34, 0 125.73 M0 125.73 C-2.38 88.34, -2.28 53.74, 0 32 M0 125.73 C-0.48 105.7, 1.26 85.8, 0 32 M0 32 C0.83 12.39, 10.64 0.43, 32 0 M0 32 C-1.26 9.23, 12.68 -0.54, 32 0" stroke="#1e1e1e" stroke-width="1" fill="none"></path></g><g transform="translate(594.2592871797933 469.5228227946184) rotate(0 86.26667022705078 12.5)"><text x="86.26667022705078" y="0" font-family="Virgil, Segoe UI Emoji" font-size="20px" fill="#1e1e1e" text-anchor="middle" style="white-space: pre;" direction="ltr" dominant-baseline="text-before-edge">FRR configuration</text></g><g stroke-linecap="round" transform="translate(38.076498626407556 580.1213928479185) rotate(0 190.42663598581794 78.86355631735896)"><path d="M7.86 8.16 C7.86 8.16, 7.86 8.16, 7.86 8.16 M7.86 8.16 C7.86 8.16, 7.86 8.16, 7.86 8.16 M3.66 19.09 C7.74 14.52, 12.67 7.23, 18.1 2.48 M3.66 19.09 C8.24 11.91, 14.98 6.23, 18.1 2.48 M2.75 26.24 C9.05 17.74, 16.47 11.56, 24.4 1.33 M2.75 26.24 C8.35 18.98, 14.91 12.52, 24.4 1.33 M2.48 32.64 C12.09 21.23, 25.26 6.59, 30.7 0.18 M2.48 32.64 C7.54 26.7, 13.33 19.39, 30.7 0.18 M2.88 38.28 C16.09 26.52, 27.45 12.17, 34.37 2.05 M2.88 38.28 C11.34 29.67, 20.16 19.78, 34.37 2.05 M2.62 44.68 C13.32 35.21, 20.16 20.79, 39.36 2.41 M2.62 44.68 C14.38 31.82, 25.15 19.82, 39.36 2.41 M2.36 51.07 C11.08 37.99, 21.55 28.1, 45 2.02 M2.36 51.07 C17.03 34.45, 30.06 17.85, 45 2.02 M2.75 56.72 C23.04 33.31, 40.24 14.17, 49.99 2.38 M2.75 56.72 C20.54 36.03, 37.18 17.31, 49.99 2.38 M2.49 63.11 C17.75 44.12, 36.13 24.38, 55.63 1.98 M2.49 63.11 C18.82 44.55, 33.09 27.6, 55.63 1.98 M2.88 68.76 C17.63 53.04, 28.38 38.74, 60.62 2.34 M2.88 68.76 C22.16 47.09, 41.27 26.03, 60.62 2.34 M2.62 75.16 C25.2 46.14, 50 19.06, 66.26 1.95 M2.62 75.16 C21.56 52.45, 41.2 30.62, 66.26 1.95 M2.36 81.55 C25.21 57.06, 47.21 31.36, 71.25 2.31 M2.36 81.55 C20.16 58.93, 41.41 35.8, 71.25 2.31 M2.76 87.2 C28.31 57.45, 55.55 26.08, 76.89 1.91 M2.76 87.2 C22 66.51, 40.09 44.88, 76.89 1.91 M2.49 93.59 C25.02 64.89, 51.06 41.11, 81.88 2.27 M2.49 93.59 C30.01 60.63, 57.95 28.78, 81.88 2.27 M2.89 99.24 C28.36 72.05, 52.83 46.1, 87.52 1.88 M2.89 99.24 C35.27 61.44, 66.99 25.42, 87.52 1.88 M2.63 105.64 C32.52 72.2, 59.4 43.4, 92.51 2.24 M2.63 105.64 C37.55 64.36, 73.83 22.63, 92.51 2.24 M2.37 112.03 C33.61 73.81, 64.19 39.6, 98.15 1.85 M2.37 112.03 C26.81 84.8, 50.63 57.39, 98.15 1.85 M2.76 117.68 C34.27 81.33, 69.05 39.82, 103.14 2.21 M2.76 117.68 C36.54 79.25, 71.92 38.2, 103.14 2.21 M2.5 124.07 C45.67 76.13, 88.55 29.17, 108.78 1.81 M2.5 124.07 C23.5 100.62, 45.01 74.88, 108.78 1.81 M2.89 129.72 C33.61 96.77, 62.2 62.64, 113.77 2.17 M2.89 129.72 C28.46 98.75, 54.27 69.35, 113.77 2.17 M3.29 135.36 C44.41 87.38, 81.47 43.07, 119.41 1.78 M3.29 135.36 C34.17 98.68, 64.76 62.24, 119.41 1.78 M4.34 140.25 C39.16 104.07, 71.52 64.45, 124.4 2.14 M4.34 140.25 C48.47 90.07, 91.25 40.41, 124.4 2.14 M4.73 145.89 C46.27 96.96, 86.45 50.6, 130.04 1.74 M4.73 145.89 C42.28 103.97, 77.55 62.34, 130.04 1.74 M7.75 148.52 C34.76 116.94, 61.16 86.02, 135.03 2.1 M7.75 148.52 C54.49 93.92, 101.34 41.04, 135.03 2.1 M10.77 151.14 C45.33 114.13, 81.08 72.18, 140.67 1.71 M10.77 151.14 C60.11 95.74, 108.72 38.78, 140.67 1.71 M13.79 153.76 C40.18 122.32, 67.71 92.49, 145.66 2.07 M13.79 153.76 C56.14 103.66, 100.27 52.73, 145.66 2.07 M17.47 155.63 C65.62 96.95, 116.52 39.5, 150.65 2.43 M17.47 155.63 C50.6 120.16, 81.84 84.01, 150.65 2.43 M20.48 158.26 C59.13 114.02, 98.54 67.01, 156.29 2.03 M20.48 158.26 C55.41 116.08, 93.27 73.76, 156.29 2.03 M25.47 158.62 C60.42 121.09, 96.11 79.78, 161.28 2.39 M25.47 158.62 C63.78 112.42, 102.94 68.42, 161.28 2.39 M29.8 159.73 C76.61 105.97, 122.95 53.67, 166.92 2 M29.8 159.73 C62.89 120.14, 97.03 79.73, 166.92 2 M34.79 160.09 C87.82 100.06, 141.93 37.67, 171.91 2.36 M34.79 160.09 C79.85 110.29, 122.16 59.87, 171.91 2.36 M39.78 160.45 C89.38 99.8, 141.15 44.42, 177.55 1.96 M39.78 160.45 C75.77 116.82, 113.14 73.52, 177.55 1.96 M45.42 160.06 C79.37 125.86, 109.56 89.74, 182.54 2.32 M45.42 160.06 C74.52 125.89, 105.05 91.29, 182.54 2.32 M50.41 160.42 C79.72 126.61, 109.38 93.78, 188.18 1.93 M50.41 160.42 C104.94 97.28, 157.93 35.79, 188.18 1.93 M56.05 160.02 C100.06 110.06, 144.27 57.09, 193.17 2.29 M56.05 160.02 C92.12 117.24, 129.05 75.85, 193.17 2.29 M61.04 160.38 C95.4 120.01, 131.05 80.08, 198.81 1.9 M61.04 160.38 C115.01 99.02, 169.1 36.46, 198.81 1.9 M66.68 159.99 C92.47 128.05, 122.96 95.17, 203.8 2.26 M66.68 159.99 C101.61 121.36, 134.63 81.41, 203.8 2.26 M71.67 160.35 C109.77 117.46, 150.64 71.27, 209.44 1.86 M71.67 160.35 C112.94 112.77, 155.98 62.69, 209.44 1.86 M77.31 159.96 C114.95 114.17, 153.16 71.18, 214.43 2.22 M77.31 159.96 C120.3 110.82, 163.93 60.59, 214.43 2.22 M82.3 160.32 C114.63 120.6, 150.19 81.05, 220.07 1.83 M82.3 160.32 C126.98 110.95, 170.07 61.26, 220.07 1.83 M87.94 159.92 C135.56 104.8, 182.49 50.85, 225.06 2.19 M87.94 159.92 C133.81 106.74, 181.24 54.67, 225.06 2.19 M92.93 160.28 C138.58 106.44, 185.11 53.69, 230.7 1.79 M92.93 160.28 C122.79 124.6, 155.85 87.62, 230.7 1.79 M98.57 159.89 C134.03 117.72, 171.88 74.39, 235.69 2.15 M98.57 159.89 C148.71 103.75, 197.69 46.84, 235.69 2.15 M103.56 160.25 C134.78 124.29, 164.77 89.46, 241.33 1.76 M103.56 160.25 C133.85 126.79, 161.72 94.32, 241.33 1.76 M109.2 159.85 C151.04 107.94, 196.59 58.04, 246.32 2.12 M109.2 159.85 C152.88 110.13, 195.8 61.99, 246.32 2.12 M114.19 160.21 C151.02 118.65, 188.31 75.63, 251.96 1.72 M114.19 160.21 C147.72 121.26, 182.13 81.19, 251.96 1.72 M119.83 159.82 C152.39 121.98, 183.42 86.63, 256.95 2.08 M119.83 159.82 C167.79 103.29, 215.83 48.32, 256.95 2.08 M124.82 160.18 C171.67 106.53, 217.4 55.72, 262.59 1.69 M124.82 160.18 C167.46 113.43, 209.76 64.64, 262.59 1.69 M130.46 159.78 C173.29 107.19, 219.99 56.61, 267.58 2.05 M130.46 159.78 C170.59 114.21, 209.3 69.03, 267.58 2.05 M135.45 160.14 C181.67 109.62, 222.95 57.93, 272.56 2.41 M135.45 160.14 C182.85 104.42, 230.93 49.05, 272.56 2.41 M140.43 160.5 C168.62 123.93, 202.17 89.47, 278.21 2.01 M140.43 160.5 C186.33 106.21, 234.5 50.85, 278.21 2.01 M146.08 160.11 C184.27 114.32, 224.71 70.18, 283.19 2.37 M146.08 160.11 C191.03 109.47, 235.17 59.91, 283.19 2.37 M151.06 160.47 C194.5 110.89, 234.86 61.13, 288.84 1.98 M151.06 160.47 C183.22 123.71, 216.75 86.57, 288.84 1.98 M156.71 160.07 C193.55 119.57, 229.57 77.05, 293.82 2.34 M156.71 160.07 C209.94 101.18, 261.39 41.29, 293.82 2.34 M161.69 160.43 C197.41 120.92, 233.79 80.71, 299.47 1.94 M161.69 160.43 C198.59 118.54, 233.92 77.1, 299.47 1.94 M167.34 160.04 C203.31 113.93, 244.39 69.27, 304.45 2.3 M167.34 160.04 C200.42 122.18, 231.92 83.25, 304.45 2.3 M172.32 160.4 C213.02 111.64, 256.59 62.02, 310.1 1.91 M172.32 160.4 C200.96 124.46, 231.56 89.93, 310.1 1.91 M177.97 160 C229.29 102.52, 278.57 44.55, 315.08 2.27 M177.97 160 C215.32 118.77, 250.52 76.9, 315.08 2.27 M182.95 160.36 C214.48 124.4, 242.1 90.73, 320.73 1.88 M182.95 160.36 C222.91 115.16, 264.01 67.22, 320.73 1.88 M188.6 159.97 C226.13 115.44, 265.89 70.36, 325.71 2.24 M188.6 159.97 C233.46 106.42, 278.32 55.18, 325.71 2.24 M193.58 160.33 C237.6 111.52, 280.12 63.21, 331.36 1.84 M193.58 160.33 C245.1 101.11, 296.17 42.46, 331.36 1.84 M199.23 159.94 C234.37 124.31, 265.02 83, 336.34 2.2 M199.23 159.94 C252.78 96.96, 308.07 34.09, 336.34 2.2 M204.21 160.3 C257.89 103.07, 308.52 41.7, 341.99 1.81 M204.21 160.3 C249.09 111.15, 292.31 62.12, 341.99 1.81 M209.86 159.9 C260.83 99.3, 311.01 40.38, 348.94 -0.1 M209.86 159.9 C256.22 106.4, 302.68 53.23, 348.94 -0.1 M214.84 160.26 C269.87 96.17, 324.68 32.38, 353.27 1.02 M214.84 160.26 C253.7 113.19, 293.96 67.4, 353.27 1.02 M220.49 159.87 C251.34 122.56, 284.11 86.39, 358.26 1.38 M220.49 159.87 C256.14 117.27, 291.89 76.71, 358.26 1.38 M225.47 160.23 C261.79 118.93, 299.85 73.71, 363.25 1.74 M225.47 160.23 C259.42 118.29, 296.26 76.94, 363.25 1.74 M231.12 159.83 C275.14 109.6, 319.93 60.87, 366.27 4.36 M231.12 159.83 C264.17 120.96, 299.09 82.14, 366.27 4.36 M236.1 160.19 C266.16 124.82, 296.83 91.81, 369.94 6.23 M236.1 160.19 C270.07 119.92, 306.5 79.26, 369.94 6.23 M241.75 159.8 C291.82 101.16, 342.17 43.59, 373.62 8.1 M241.75 159.8 C269.71 128.1, 297.34 96.01, 373.62 8.1 M246.73 160.16 C273.62 128.9, 297.69 98.16, 375.98 11.48 M246.73 160.16 C294.39 106.39, 339.15 53.59, 375.98 11.48 M252.38 159.76 C287.91 121.09, 321.96 84.97, 378.34 14.86 M252.38 159.76 C299.8 104.59, 348.05 48.01, 378.34 14.86 M257.36 160.12 C297.36 114.06, 338.36 67.05, 380.05 18.99 M257.36 160.12 C289.13 123.52, 320.06 86.98, 380.05 18.99 M262.35 160.48 C292.74 124.44, 327.09 85.22, 380.44 24.64 M262.35 160.48 C293.16 125.55, 323.92 90.64, 380.44 24.64 M268 160.09 C311.11 111.4, 355.65 60.08, 380.18 31.03 M268 160.09 C300.79 121.17, 334.01 84.38, 380.18 31.03 M272.98 160.45 C299.66 130.51, 325.81 101.28, 380.58 36.68 M272.98 160.45 C301.89 125.05, 333.6 90.58, 380.58 36.68 M278.63 160.05 C319.49 116.01, 358.07 69.58, 380.31 43.07 M278.63 160.05 C308.56 125.89, 337.56 93.6, 380.31 43.07 M283.61 160.41 C304.36 134.36, 327.41 106.63, 380.71 48.72 M283.61 160.41 C314.75 125, 345.99 89.31, 380.71 48.72 M289.26 160.02 C324.59 122, 356 81.32, 380.45 55.12 M289.26 160.02 C311.91 135.25, 334.86 108.52, 380.45 55.12 M294.24 160.38 C315.17 138.25, 333.71 111.44, 380.84 60.76 M294.24 160.38 C328.12 121.33, 361.64 81.8, 380.84 60.76 M299.89 159.99 C316.1 140.64, 332.17 124.61, 380.58 67.16 M299.89 159.99 C323.07 135.34, 343.35 110.03, 380.58 67.16 M304.87 160.35 C327.14 133.97, 348.91 111.36, 380.98 72.8 M304.87 160.35 C333.86 129.75, 361.34 97.98, 380.98 72.8 M310.52 159.95 C326.68 143.71, 337.42 126.04, 380.71 79.2 M310.52 159.95 C328.77 140.18, 345.62 119.07, 380.71 79.2 M315.5 160.31 C336.63 134.3, 357.68 108.7, 380.45 85.59 M315.5 160.31 C330.43 143.2, 344.99 126.24, 380.45 85.59 M321.15 159.92 C338.36 139.66, 358.12 116.56, 380.85 91.24 M321.15 159.92 C344.5 133.4, 366.45 107.52, 380.85 91.24 M326.13 160.28 C345.48 135.81, 367.26 111.89, 380.59 97.64 M326.13 160.28 C338.7 144.81, 352.11 129.86, 380.59 97.64 M331.78 159.88 C347.15 143.43, 361.44 127.14, 380.98 103.28 M331.78 159.88 C343.2 146.08, 353.8 132.62, 380.98 103.28 M336.76 160.24 C351.28 142.87, 370.34 123.99, 380.72 109.68 M336.76 160.24 C353.93 140.36, 369.8 122.94, 380.72 109.68 M342.41 159.85 C355.15 145.12, 368.91 128.13, 381.11 115.32 M342.41 159.85 C352.98 147.48, 364.58 134.15, 381.11 115.32 M349.36 157.94 C355.31 151.85, 364.21 142.49, 380.85 121.72 M349.36 157.94 C358.02 147.5, 365.63 139.45, 380.85 121.72 M355 157.55 C363.91 145.51, 373.51 135.06, 381.9 126.61 M355 157.55 C365.25 145.81, 377.1 134.39, 381.9 126.61 M361.3 156.4 C364.91 149.17, 371.45 146.21, 380.98 133.76 M361.3 156.4 C367.89 149.99, 373.4 143.05, 380.98 133.76 M368.91 153.74 C372.07 149.31, 375.15 144.55, 380.07 140.91 M368.91 153.74 C372.09 150.01, 375.67 146.34, 380.07 140.91" stroke="#ffec99" stroke-width="0.5" fill="none"></path><path d="M32 0 M32 0 C158.26 -1.64, 284.13 1.12, 348.85 0 M32 0 C114.17 1.31, 197.53 0.79, 348.85 0 M348.85 0 C372.06 -0.38, 381.24 10.67, 380.85 32 M348.85 0 C371.84 1.67, 378.95 12.61, 380.85 32 M380.85 32 C379.79 63.78, 378.48 95.31, 380.85 125.73 M380.85 32 C379.79 61.71, 380.05 90.34, 380.85 125.73 M380.85 125.73 C379.88 147.78, 372.03 157.15, 348.85 157.73 M380.85 125.73 C382.4 147.75, 370.07 158.77, 348.85 157.73 M348.85 157.73 C259.39 158.08, 167.57 156.41, 32 157.73 M348.85 157.73 C275.36 158.09, 202.22 158.52, 32 157.73 M32 157.73 C12.17 155.85, 0.02 145.29, 0 125.73 M32 157.73 C8.92 157.44, 1.66 147.24, 0 125.73 M0 125.73 C-2.5 101.1, -0.31 81.36, 0 32 M0 125.73 C0.53 92.52, 0.31 57.51, 0 32 M0 32 C-1.45 9.61, 10.12 -1.55, 32 0 M0 32 C-0.33 12.8, 12.12 -0.93, 32 0" stroke="#1e1e1e" stroke-width="1" fill="none"></path></g><g transform="translate(153.88646591105362 646.4849491652774) rotate(0 74.61666870117188 12.5)"><text x="74.61666870117188" y="0" font-family="Virgil, Segoe UI Emoji" font-size="20px" fill="#1e1e1e" text-anchor="middle" style="white-space: pre;" direction="ltr" dominant-baseline="text-before-edge">Test Class(es)</text></g><g stroke-linecap="round" transform="translate(492.40531592664956 574.7333818591655) rotate(0 190.42663598581794 78.86355631735896)"><path d="M7.86 8.16 C7.86 8.16, 7.86 8.16, 7.86 8.16 M7.86 8.16 C7.86 8.16, 7.86 8.16, 7.86 8.16 M3.66 19.09 C7.92 15.04, 14.69 8.22, 18.1 2.48 M3.66 19.09 C8.72 13, 14.91 6.77, 18.1 2.48 M2.75 26.24 C7.88 18.6, 12.75 15.23, 24.4 1.33 M2.75 26.24 C7.35 21.21, 12.38 14.16, 24.4 1.33 M2.48 32.64 C13.08 20.41, 24.27 9.86, 30.7 0.18 M2.48 32.64 C8.14 25.32, 12.92 20.69, 30.7 0.18 M2.88 38.28 C12.9 28.15, 18.57 19.04, 34.37 2.05 M2.88 38.28 C9.65 28.76, 17.88 20.85, 34.37 2.05 M2.62 44.68 C12.41 34.69, 18.48 27.43, 39.36 2.41 M2.62 44.68 C10.22 34.96, 17.92 27.73, 39.36 2.41 M2.36 51.07 C18.44 33.18, 35.17 14.33, 45 2.02 M2.36 51.07 C11.6 40.28, 21.34 29.42, 45 2.02 M2.75 56.72 C18.16 39.58, 34.9 19.93, 49.99 2.38 M2.75 56.72 C14.27 43.81, 26.03 30.32, 49.99 2.38 M2.49 63.11 C22.59 40.9, 40.9 18.78, 55.63 1.98 M2.49 63.11 C15.68 49.92, 27.9 34.5, 55.63 1.98 M2.88 68.76 C21.77 45.99, 38.94 27.8, 60.62 2.34 M2.88 68.76 C19.37 50.72, 33.41 33.99, 60.62 2.34 M2.62 75.16 C27.7 46.54, 53.48 16.34, 66.26 1.95 M2.62 75.16 C25.82 48.16, 47.28 23.08, 66.26 1.95 M2.36 81.55 C21.7 59.6, 37.58 37.09, 71.25 2.31 M2.36 81.55 C28.14 51.81, 54.51 21.17, 71.25 2.31 M2.76 87.2 C33.7 53.23, 61.23 19.6, 76.89 1.91 M2.76 87.2 C20.93 67.37, 39.7 45.02, 76.89 1.91 M2.49 93.59 C24.31 68.28, 44.74 44.64, 81.88 2.27 M2.49 93.59 C20.7 72.05, 39.42 50.25, 81.88 2.27 M2.89 99.24 C30.08 67.5, 58.6 36.06, 87.52 1.88 M2.89 99.24 C35.51 61.95, 68.63 24.13, 87.52 1.88 M2.63 105.64 C26.51 79.24, 51.28 49.28, 92.51 2.24 M2.63 105.64 C23.62 81.41, 44.14 58.82, 92.51 2.24 M2.37 112.03 C30.23 82.43, 55.96 50.1, 98.15 1.85 M2.37 112.03 C38.76 69.45, 76.63 26.15, 98.15 1.85 M2.76 117.68 C21.34 92.33, 45.6 69.58, 103.14 2.21 M2.76 117.68 C30.48 85.71, 57.45 55.55, 103.14 2.21 M2.5 124.07 C44.27 79.99, 84.09 34.27, 108.78 1.81 M2.5 124.07 C37.87 83.49, 71.88 42.73, 108.78 1.81 M2.89 129.72 C41.41 86.7, 77.61 45.12, 113.77 2.17 M2.89 129.72 C34 95.24, 64.07 59.53, 113.77 2.17 M3.29 135.36 C32.17 98.25, 63.67 64.57, 119.41 1.78 M3.29 135.36 C28.63 108, 51.41 80.1, 119.41 1.78 M4.34 140.25 C31.51 107.87, 60.71 76.44, 124.4 2.14 M4.34 140.25 C30.36 109.1, 56.36 77.46, 124.4 2.14 M4.73 145.89 C37.6 109.72, 66.11 74.46, 130.04 1.74 M4.73 145.89 C39.26 105.15, 75.07 65.6, 130.04 1.74 M7.75 148.52 C60.81 89.78, 109.05 33.18, 135.03 2.1 M7.75 148.52 C43.88 103.43, 83.13 61.03, 135.03 2.1 M10.77 151.14 C54.9 100.89, 96.05 52.81, 140.67 1.71 M10.77 151.14 C56.97 99.38, 103.39 47.37, 140.67 1.71 M13.79 153.76 C54.51 106.05, 95.85 56.2, 145.66 2.07 M13.79 153.76 C63.46 94.56, 113.06 36.43, 145.66 2.07 M17.47 155.63 C65.31 98.94, 116.54 40.8, 150.65 2.43 M17.47 155.63 C49.81 117.82, 81.37 82.13, 150.65 2.43 M20.48 158.26 C66.31 106.24, 114.09 53.2, 156.29 2.03 M20.48 158.26 C65.8 106.45, 112.44 51.84, 156.29 2.03 M25.47 158.62 C75.94 101.48, 125.38 43.29, 161.28 2.39 M25.47 158.62 C69.9 107.74, 113.29 57.15, 161.28 2.39 M29.8 159.73 C55.29 125.15, 86.83 94.31, 166.92 2 M29.8 159.73 C76.96 106.57, 122.99 53.35, 166.92 2 M34.79 160.09 C78.8 107.16, 121.68 56.3, 171.91 2.36 M34.79 160.09 C66.72 123.91, 98.81 87.58, 171.91 2.36 M39.78 160.45 C85.6 106.37, 133.19 53.41, 177.55 1.96 M39.78 160.45 C83.9 110.03, 128.29 59.75, 177.55 1.96 M45.42 160.06 C98.4 98.46, 152.96 37.2, 182.54 2.32 M45.42 160.06 C90.16 109.71, 134.57 58.55, 182.54 2.32 M50.41 160.42 C99.56 105.08, 145.84 51.66, 188.18 1.93 M50.41 160.42 C96.2 108.35, 142.29 54.89, 188.18 1.93 M56.05 160.02 C107.16 100.3, 155.05 45.92, 193.17 2.29 M56.05 160.02 C112.19 96.65, 166.67 32.65, 193.17 2.29 M61.04 160.38 C106.25 111, 147.92 60.43, 198.81 1.9 M61.04 160.38 C93.46 125.04, 123.7 89.52, 198.81 1.9 M66.68 159.99 C116.28 105.16, 162.73 50.04, 203.8 2.26 M66.68 159.99 C96.16 127.89, 125.52 94.14, 203.8 2.26 M71.67 160.35 C116.38 108.75, 159.04 58.59, 209.44 1.86 M71.67 160.35 C115.82 109.26, 158.88 59.2, 209.44 1.86 M77.31 159.96 C118.78 109.49, 163.52 60.74, 214.43 2.22 M77.31 159.96 C121.76 107.25, 167.66 53.81, 214.43 2.22 M82.3 160.32 C126.28 112.52, 169.2 61.64, 220.07 1.83 M82.3 160.32 C128.97 105.74, 175.55 53.57, 220.07 1.83 M87.94 159.92 C133.86 107.37, 176 57.92, 225.06 2.19 M87.94 159.92 C130.14 110.07, 172.66 61.26, 225.06 2.19 M92.93 160.28 C125.6 122.73, 156.66 87.33, 230.7 1.79 M92.93 160.28 C132.91 114.58, 173.81 68.29, 230.7 1.79 M98.57 159.89 C141.3 111.18, 182.11 61.74, 235.69 2.15 M98.57 159.89 C142.57 111.21, 186.03 61.19, 235.69 2.15 M103.56 160.25 C143.36 115.48, 182.47 69.23, 241.33 1.76 M103.56 160.25 C158.84 98.71, 212.77 35.3, 241.33 1.76 M109.2 159.85 C150.58 110.83, 191.33 62.2, 246.32 2.12 M109.2 159.85 C144.58 120.67, 179.99 79.9, 246.32 2.12 M114.19 160.21 C155.19 111.65, 197.7 65.04, 251.96 1.72 M114.19 160.21 C160.3 107.43, 206.96 53.9, 251.96 1.72 M119.83 159.82 C172.61 95.84, 227.06 32.22, 256.95 2.08 M119.83 159.82 C160.88 112.19, 200.51 66.07, 256.95 2.08 M124.82 160.18 C169.81 104.23, 219.23 51.83, 262.59 1.69 M124.82 160.18 C153.09 127.11, 181.52 95.17, 262.59 1.69 M130.46 159.78 C158.63 129.18, 186.28 94.56, 267.58 2.05 M130.46 159.78 C173.43 107.89, 218.5 56.18, 267.58 2.05 M135.45 160.14 C174.15 117.43, 212.99 71.62, 272.56 2.41 M135.45 160.14 C162.46 128.29, 188.44 96.83, 272.56 2.41 M140.43 160.5 C188.93 100.72, 241.33 41.82, 278.21 2.01 M140.43 160.5 C179.73 113.12, 220.69 66.96, 278.21 2.01 M146.08 160.11 C183.02 115.99, 220.24 74.77, 283.19 2.37 M146.08 160.11 C184.78 115.25, 223.85 70.37, 283.19 2.37 M151.06 160.47 C191.06 114.09, 231.05 69.72, 288.84 1.98 M151.06 160.47 C189 116.29, 229.25 71.64, 288.84 1.98 M156.71 160.07 C192.05 119.93, 226.39 79.84, 293.82 2.34 M156.71 160.07 C202.43 108.31, 247.3 57.63, 293.82 2.34 M161.69 160.43 C209.05 106.45, 254.24 53.17, 299.47 1.94 M161.69 160.43 C190.29 126.49, 221.17 92.34, 299.47 1.94 M167.34 160.04 C202.41 122.16, 234.88 85.35, 304.45 2.3 M167.34 160.04 C219.88 100.03, 273.53 37.35, 304.45 2.3 M172.32 160.4 C213.94 111.52, 256.12 65.14, 310.1 1.91 M172.32 160.4 C222.97 102.07, 271.98 45.14, 310.1 1.91 M177.97 160 C210.06 124.16, 238.89 89.56, 315.08 2.27 M177.97 160 C207.42 126.85, 238.68 91.76, 315.08 2.27 M182.95 160.36 C229.94 106.45, 277.94 52.57, 320.73 1.88 M182.95 160.36 C216.79 123.63, 248.08 85.37, 320.73 1.88 M188.6 159.97 C229.66 116.05, 269.66 68.99, 325.71 2.24 M188.6 159.97 C238.26 101.68, 288.22 44.44, 325.71 2.24 M193.58 160.33 C243.11 101.93, 293.94 44.44, 331.36 1.84 M193.58 160.33 C233.01 115.6, 273.17 70.35, 331.36 1.84 M199.23 159.94 C241.19 113.69, 284.21 62.79, 336.34 2.2 M199.23 159.94 C236.42 117.66, 273.19 76.13, 336.34 2.2 M204.21 160.3 C249.52 107.32, 293.75 58.81, 341.99 1.81 M204.21 160.3 C231.4 127.53, 259.36 96.04, 341.99 1.81 M209.86 159.9 C243.07 123.48, 274.22 86.22, 348.94 -0.1 M209.86 159.9 C255.88 106.76, 301.98 53.14, 348.94 -0.1 M214.84 160.26 C256.76 116.28, 294.4 68.79, 353.27 1.02 M214.84 160.26 C245.75 122.64, 277.74 86.4, 353.27 1.02 M220.49 159.87 C271.91 99.07, 324.93 42.24, 358.26 1.38 M220.49 159.87 C264.06 109.42, 305.32 61.6, 358.26 1.38 M225.47 160.23 C275.39 102.77, 327.55 43.8, 363.25 1.74 M225.47 160.23 C260.07 121.28, 294 83.88, 363.25 1.74 M231.12 159.83 C279.34 105.37, 329.58 49.19, 366.27 4.36 M231.12 159.83 C268.8 114.8, 308.55 70.19, 366.27 4.36 M236.1 160.19 C263.88 124.9, 291.96 92.58, 369.94 6.23 M236.1 160.19 C270.35 120.57, 306.59 78.71, 369.94 6.23 M241.75 159.8 C293.1 98.07, 345.81 40.41, 373.62 8.1 M241.75 159.8 C280.67 114.8, 318.51 72.11, 373.62 8.1 M246.73 160.16 C284.88 114.5, 324 71.82, 375.98 11.48 M246.73 160.16 C292.98 105.82, 340.29 51.25, 375.98 11.48 M252.38 159.76 C296.3 111.2, 336.32 63.02, 378.34 14.86 M252.38 159.76 C290.04 117.84, 328.4 74.36, 378.34 14.86 M257.36 160.12 C286.4 130.95, 314.29 99.51, 380.05 18.99 M257.36 160.12 C298.06 112.52, 340.51 65.21, 380.05 18.99 M262.35 160.48 C292.9 125.65, 323.1 90.99, 380.44 24.64 M262.35 160.48 C288.85 132.05, 313.03 103.4, 380.44 24.64 M268 160.09 C294.75 127.06, 319.01 99.25, 380.18 31.03 M268 160.09 C293.74 129.53, 319.68 101.36, 380.18 31.03 M272.98 160.45 C307.65 123.62, 337.39 83.1, 380.58 36.68 M272.98 160.45 C304.47 123.21, 338.21 85.07, 380.58 36.68 M278.63 160.05 C309.5 122.28, 341.98 88.11, 380.31 43.07 M278.63 160.05 C302.6 132.73, 327.63 104.24, 380.31 43.07 M283.61 160.41 C304.43 137.9, 324.52 112.38, 380.71 48.72 M283.61 160.41 C318.25 118.93, 353.22 78.48, 380.71 48.72 M289.26 160.02 C314.09 135.33, 336.59 107.05, 380.45 55.12 M289.26 160.02 C324.23 117.99, 360.93 76.24, 380.45 55.12 M294.24 160.38 C327.51 125.17, 360.92 86.57, 380.84 60.76 M294.24 160.38 C322.88 127.17, 351.53 94.42, 380.84 60.76 M299.89 159.99 C329.69 124.41, 362.08 88.72, 380.58 67.16 M299.89 159.99 C321.68 135.25, 344.79 110.34, 380.58 67.16 M304.87 160.35 C332.65 126.22, 364.08 91.87, 380.98 72.8 M304.87 160.35 C328.01 133.24, 349.56 107.79, 380.98 72.8 M310.52 159.95 C332.36 133.34, 353.46 108.7, 380.71 79.2 M310.52 159.95 C330.4 137.31, 351.33 112.34, 380.71 79.2 M315.5 160.31 C338.78 132.75, 360.16 108.58, 380.45 85.59 M315.5 160.31 C333.92 139.15, 350.69 118.3, 380.45 85.59 M321.15 159.92 C338.11 139.56, 356.4 116.24, 380.85 91.24 M321.15 159.92 C334.19 145.76, 345.76 132.62, 380.85 91.24 M326.13 160.28 C340.62 143.34, 356.73 122.84, 380.59 97.64 M326.13 160.28 C339.51 144.16, 352.99 129.98, 380.59 97.64 M331.78 159.88 C349.64 142.54, 365.39 121.11, 380.98 103.28 M331.78 159.88 C341.1 147.39, 352.94 136.56, 380.98 103.28 M336.76 160.24 C354.42 141.05, 368.22 123.81, 380.72 109.68 M336.76 160.24 C351.28 143.75, 363.94 129.74, 380.72 109.68 M342.41 159.85 C351.12 148.78, 361.41 135.11, 381.11 115.32 M342.41 159.85 C352.9 147.88, 362.52 136.12, 381.11 115.32 M349.36 157.94 C357.92 147.66, 367.34 137.66, 380.85 121.72 M349.36 157.94 C359.25 147.38, 367.66 135.73, 380.85 121.72 M355 157.55 C364.15 145.88, 373.03 134.4, 381.9 126.61 M355 157.55 C363.81 146.87, 373.24 136.11, 381.9 126.61 M361.3 156.4 C369.41 149.24, 372.39 142.19, 380.98 133.76 M361.3 156.4 C366.8 151.07, 372.44 143.97, 380.98 133.76 M368.91 153.74 C371.1 151.03, 374.03 144.51, 380.07 140.91 M368.91 153.74 C372.84 148.49, 377.1 143.55, 380.07 140.91" stroke="#ffec99" stroke-width="0.5" fill="none"></path><path d="M32 0 M32 0 C144.57 2.5, 256.58 2.59, 348.85 0 M32 0 C117.8 -0.09, 205.19 -0.18, 348.85 0 M348.85 0 C371.07 1.23, 382.21 10.35, 380.85 32 M348.85 0 C370.34 -1.55, 382.02 11, 380.85 32 M380.85 32 C381.32 63.2, 380.74 96.47, 380.85 125.73 M380.85 32 C380.83 54.49, 382.52 75.39, 380.85 125.73 M380.85 125.73 C379.57 147.68, 368.9 158.18, 348.85 157.73 M380.85 125.73 C378.84 147.16, 369.86 157.81, 348.85 157.73 M348.85 157.73 C251.86 159.23, 157.07 159.42, 32 157.73 M348.85 157.73 C273.07 159.9, 195.93 159.84, 32 157.73 M32 157.73 C11.05 158.92, 1.08 148.41, 0 125.73 M32 157.73 C9.34 160.01, 2.09 149.19, 0 125.73 M0 125.73 C-0.71 97.64, -1.06 66.06, 0 32 M0 125.73 C1.68 91.42, 1.28 58.55, 0 32 M0 32 C-0.02 11.09, 9.57 -1.25, 32 0 M0 32 C2.01 10.13, 10.23 1.78, 32 0" stroke="#1e1e1e" stroke-width="1" fill="none"></path></g><g transform="translate(608.2152832112961 641.0969381765244) rotate(0 74.61666870117188 12.5)"><text x="74.61666870117188" y="0" font-family="Virgil, Segoe UI Emoji" font-size="20px" fill="#1e1e1e" text-anchor="middle" style="white-space: pre;" direction="ltr" dominant-baseline="text-before-edge">Test Class(es)</text></g><g stroke-linecap="round" transform="translate(10 50.01103571344714) rotate(0 212.54690178215037 354.8860034281153)"><path d="M32 0 M32 0 C127.01 -1.44, 221.33 -0.04, 393.09 0 M32 0 C111.48 -1.37, 189.69 -2.01, 393.09 0 M393.09 0 C414.59 0.38, 424.51 11.27, 425.09 32 M393.09 0 C414.89 0.15, 424.9 8.63, 425.09 32 M425.09 32 C425.27 186.54, 425.76 340.7, 425.09 677.77 M425.09 32 C426.83 237.96, 426.49 444.29, 425.09 677.77 M425.09 677.77 C425.54 697.24, 415.31 711.27, 393.09 709.77 M425.09 677.77 C423.3 699.36, 415.62 711.97, 393.09 709.77 M393.09 709.77 C312.94 710.75, 234.88 711.1, 32 709.77 M393.09 709.77 C256.96 710.9, 121.57 711.04, 32 709.77 M32 709.77 C9.97 709.12, -0.34 697.41, 0 677.77 M32 709.77 C11.65 710.02, -0.23 699.32, 0 677.77 M0 677.77 C-0.8 526.61, -0.86 376.17, 0 32 M0 677.77 C-1.72 453.41, -2.37 229.6, 0 32 M0 32 C-0.58 11.55, 10.29 -0.02, 32 0 M0 32 C-1.59 8.6, 8.56 -0.71, 32 0" stroke="#1971c2" stroke-width="1" fill="none"></path></g><g stroke-linecap="round" transform="translate(464.328817300242 44.623024724694176) rotate(0 212.54690178215014 354.8860034281153)"><path d="M32 0 M32 0 C150.45 1.37, 268.68 -0.07, 393.09 0 M32 0 C124.51 0.72, 217.29 1.41, 393.09 0 M393.09 0 C414.11 1.69, 426.2 10.22, 425.09 32 M393.09 0 C413.52 0.6, 425.65 11.62, 425.09 32 M425.09 32 C425.22 189.56, 425.05 348.8, 425.09 677.77 M425.09 32 C424.27 182.66, 424.27 332.6, 425.09 677.77 M425.09 677.77 C426.1 698.11, 414.07 710.32, 393.09 709.77 M425.09 677.77 C424.06 701.23, 414.35 707.5, 393.09 709.77 M393.09 709.77 C288.1 708.45, 186.66 709.17, 32 709.77 M393.09 709.77 C304.62 711.24, 216.48 711.21, 32 709.77 M32 709.77 C11.92 709.85, -1.41 697.81, 0 677.77 M32 709.77 C10.25 710.48, -2.02 698.69, 0 677.77 M0 677.77 C-2.4 457.22, -3.22 235.33, 0 32 M0 677.77 C0.77 463.18, 1.17 248.11, 0 32 M0 32 C-0.72 10.55, 11.29 0.38, 32 0 M0 32 C0.5 8.95, 9.52 0.7, 32 0" stroke="#1971c2" stroke-width="1" fill="none"></path></g><g transform="translate(29.23501373594172 15.388010988752967) rotate(0 57.849998474121094 12.5)"><text x="0" y="0" font-family="Virgil, Segoe UI Emoji" font-size="20px" fill="#1e1e1e" text-anchor="start" style="white-space: pre;" direction="ltr" dominant-baseline="text-before-edge">bgp_test.py</text></g><g transform="translate(483.56383103618373 10) rotate(0 68.93333435058594 12.5)"><text x="0" y="0" font-family="Virgil, Segoe UI Emoji" font-size="20px" fill="#1e1e1e" text-anchor="start" style="white-space: pre;" direction="ltr" dominant-baseline="text-before-edge">exbgp_test.py</text></g><g transform="translate(939.0511634459608 380.85327197163593) rotate(0 8.199999809265137 12.5)"><text x="0" y="0" font-family="Virgil, Segoe UI Emoji" font-size="20px" fill="#1e1e1e" text-anchor="start" style="white-space: pre;" direction="ltr" dominant-baseline="text-before-edge">...</text></g></svg>